<svg width="80" height="80" viewBox="0 0 80 80" fill="none" xmlns="http://www.w3.org/2000/svg">
<g clip-path="url(#clip0_27_3407)">
<path d="M40.9583 79.9999C38.068 80.0236 35.2215 79.1713 32.6952 77.5256L23.4413 71.2638C20.2173 69.0845 18.3657 65.7443 18.3657 62.1042C18.3657 58.7164 19.9574 55.6997 22.7266 53.8249L50.4517 35.068C52.5824 33.7046 54.9802 33.0174 57.4074 33.0743C60.2977 33.0506 63.1442 33.903 65.6705 35.5486L74.9244 41.8199C78.1484 43.9992 80 47.3395 80 50.9795C80 54.3674 78.4083 57.3841 75.639 59.2588L47.9139 78.0062C45.7834 79.3702 43.3855 80.0575 40.9583 79.9999ZM39.3341 64.5357C39.8682 64.8426 40.457 64.9959 41.0517 64.983C41.3065 64.9929 41.5611 64.9576 41.8069 64.8783L62.7185 50.6036L59.3158 48.3006C58.7817 47.9938 58.1929 47.8404 57.5982 47.8534C57.3435 47.8465 57.0893 47.8818 56.843 47.958L35.9314 62.2327L39.3341 64.5357Z" fill="#776B65"/>
<path d="M40.9583 79.9999C38.068 80.0236 35.2215 79.1713 32.6952 77.5256L23.4413 71.2638C20.2173 69.0846 18.3657 65.7443 18.3657 62.1043C18.3657 58.7164 19.9574 55.6997 22.7266 53.8249L47.9017 78.0062C45.7748 79.3678 43.3814 80.055 40.9583 79.9999ZM39.3341 64.5357C39.8682 64.8426 40.457 64.9959 41.0517 64.983C41.3065 64.9929 41.5611 64.9576 41.8069 64.8783L62.7185 50.6036L59.3158 48.3006C58.7817 47.9938 58.1929 47.8405 57.5982 47.8534C57.3435 47.8465 57.0893 47.8818 56.843 47.9581L35.9314 62.2327L39.3341 64.5357Z" fill="#604F46"/>
<path d="M40.9583 79.9999C38.0679 80.0236 35.2215 79.1713 32.6952 77.5256V73.1671C32.6952 73.1671 46.8785 73.8666 47.9139 73.1671V78.0062C45.7834 79.3702 43.3855 80.0575 40.9583 79.9999ZM39.3341 64.5357C39.8681 64.8426 40.4569 64.9959 41.0517 64.983C41.3065 64.9929 41.5611 64.9576 41.8069 64.8783L62.7185 50.6036L59.3158 48.3006C58.7817 47.9938 58.1929 47.8405 57.5982 47.8534C57.3435 47.8465 57.0893 47.8818 56.843 47.9581L35.9314 62.2327L39.3341 64.5357Z" fill="#6B5E59"/>
<path d="M40.9583 78.5724C38.068 78.5961 35.2215 77.7438 32.6952 76.0981L23.4413 69.8363C20.2173 67.6571 18.3657 64.3168 18.3657 60.6767C18.3657 57.2889 19.9574 54.2722 22.7266 52.3974L50.4517 33.6405C52.5824 32.2771 54.9802 31.5899 57.4074 31.6468C60.2977 31.6231 63.1442 32.4755 65.6705 34.1211L74.9244 40.3924C78.1484 42.5717 80 45.912 80 49.552C80 52.9399 78.4083 55.9566 75.639 57.8313L47.9139 76.5787C45.7834 77.9427 43.3855 78.63 40.9583 78.5724ZM39.3341 63.1082C39.8682 63.4151 40.457 63.5684 41.0517 63.5555C41.3065 63.5654 41.5611 63.5301 41.8069 63.4508L62.7185 49.1761L59.3158 46.8731C58.7817 46.5663 58.1929 46.4129 57.5982 46.4259C57.3435 46.419 57.0893 46.4543 56.843 46.5305L35.9314 60.8052L39.3341 63.1082Z" fill="#918781"/>
<path d="M40.9583 74.5853C38.7813 74.6026 36.6364 73.9705 34.7254 72.7486L25.4715 66.4868C23.5347 65.1783 22.4261 63.3416 22.4261 61.4431C22.4261 59.7824 23.2382 58.3026 24.7569 57.2891L52.482 38.5322C53.9952 37.586 55.6929 37.1186 57.4074 37.1761C59.5845 37.1565 61.7299 37.7887 63.6402 39.0128L72.8941 45.2746C74.831 46.5831 75.9395 48.4198 75.9395 50.3136C75.9395 51.979 75.1274 53.454 73.6088 54.4723L45.8837 73.2244C44.3697 74.1684 42.6726 74.6356 40.9583 74.5805V74.5853ZM57.6063 42.453C56.6564 42.4153 55.7136 42.6592 54.8655 43.162L29.5889 60.401C29.3128 60.5866 28.858 60.9625 28.858 61.4335C28.858 61.9046 29.195 62.5089 30.137 63.1465L37.2916 67.9904C38.4423 68.7183 39.7319 69.0917 41.0395 69.0752C41.99 69.114 42.9333 68.8683 43.7803 68.3615L69.0569 51.1272C69.3331 50.9417 69.7878 50.561 69.7878 50.0947C69.7878 49.7045 69.4508 49.0193 68.5088 48.3817L61.3339 43.5283C60.1825 42.8037 58.8929 42.4337 57.586 42.453H57.6063Z" fill="#817E8C"/>
<path d="M40.9583 74.5853C38.7813 74.6026 36.6364 73.9705 34.7254 72.7486L25.4715 66.4868C23.5347 65.1783 22.4261 63.3416 22.4261 61.4431C22.4261 59.7824 23.2382 58.3026 24.7569 57.2891L52.482 38.5322C53.9952 37.586 55.6929 37.1186 57.4074 37.1761C59.5845 37.1565 61.7299 37.7887 63.6402 39.0128L46.0298 60.1964L45.8837 73.2244C44.3697 74.1684 42.6726 74.6356 40.9583 74.5805V74.5853ZM57.6063 42.453C56.6564 42.4153 55.7136 42.6592 54.8655 43.162L29.5889 60.401C29.3128 60.5866 28.858 60.9625 28.858 61.4335C28.858 61.9046 29.195 62.5089 30.137 63.1465L37.2916 67.9904C38.4423 68.7183 39.7319 69.0917 41.0395 69.0752C41.99 69.114 42.9333 68.8683 43.7803 68.3615L69.0569 51.1272C69.3331 50.9417 69.7878 50.561 69.7878 50.0947C69.7878 49.7045 69.4508 49.0193 68.5088 48.3817L61.3339 43.5283C60.1825 42.8037 58.8929 42.4337 57.586 42.453H57.6063Z" fill="#4D4654"/>
<path d="M40.9583 74.5853C38.7813 74.6026 36.6365 73.9705 34.7254 72.7486V61.2765L52.482 38.5322C53.9952 37.586 55.6929 37.1186 57.4074 37.1761C59.5846 37.1565 61.73 37.7887 63.6403 39.0128L46.0299 60.1964L45.8837 73.2244C44.3697 74.1684 42.6726 74.6356 40.9583 74.5805V74.5853ZM57.6063 42.453C56.6564 42.4153 55.7137 42.6592 54.8655 43.162L29.5889 60.401C29.3128 60.5866 28.858 60.9625 28.858 61.4335C28.858 61.9046 29.195 62.5089 30.1371 63.1465L37.2917 67.9904C38.4423 68.7183 39.732 69.0917 41.0395 69.0752C41.99 69.114 42.9333 68.8683 43.7803 68.3615L69.057 51.1272C69.3331 50.9417 69.7878 50.561 69.7878 50.0947C69.7878 49.7045 69.4508 49.0193 68.5088 48.3817L61.3339 43.5283C60.1825 42.8037 58.8929 42.4337 57.586 42.453H57.6063Z" fill="#63617F"/>
<path d="M40.9583 73.8144C38.7813 73.8317 36.6364 73.1996 34.7254 71.9777L25.4715 65.7159C23.5347 64.4074 22.4261 62.5707 22.4261 60.6769C22.4261 59.0116 23.2382 57.5365 24.7569 56.5183L52.482 37.7613C53.9959 36.8174 55.6931 36.3501 57.4074 36.4052C59.5843 36.388 61.7292 37.02 63.6402 38.2419L72.8941 44.5037C74.831 45.8122 75.9395 47.6489 75.9395 49.5427C75.9395 51.2081 75.1274 52.6879 73.6088 53.7014L45.8837 72.4583C44.3704 73.4045 42.6728 73.8719 40.9583 73.8144ZM57.6063 41.6821C56.6558 41.6434 55.7125 41.889 54.8655 42.3958L29.5889 59.6301C29.3128 59.8157 28.858 60.1964 28.858 60.6627C28.858 61.129 29.195 61.738 30.137 62.3756L37.3119 67.229C38.4626 67.957 39.7522 68.3303 41.0598 68.3139C42.0097 68.3516 42.9525 68.1077 43.8006 67.6049L69.0569 50.3849C69.3331 50.1993 69.7878 49.8234 69.7878 49.3524C69.7878 48.9622 69.4508 48.277 68.5088 47.6394L61.3339 42.7717C60.1836 42.0421 58.8939 41.6672 57.586 41.6821H57.6063Z" fill="#C1BFEF"/>
<path d="M40.9583 73.8144C38.7813 73.8317 36.6364 73.1996 34.7254 71.9777L25.4715 65.7159C23.5347 64.4074 22.4261 62.5707 22.4261 60.6769C22.4261 59.0116 23.2382 57.5365 24.7569 56.5183L52.482 37.7613C53.9959 36.8174 55.6931 36.3501 57.4074 36.4052C59.5843 36.388 61.7292 37.02 63.6402 38.2419L72.8941 44.5037C74.831 45.8122 75.9395 47.6489 75.9395 49.5427C75.9395 51.2081 75.1274 52.6879 73.6088 53.7014L45.8837 72.4583C44.3704 73.4045 42.6728 73.8719 40.9583 73.8144ZM57.6063 41.6821C56.6558 41.6434 55.7125 41.889 54.8655 42.3958L29.5889 59.6301C29.3128 59.8157 28.858 60.1964 28.858 60.6627C28.858 61.129 29.195 61.738 30.137 62.3756L37.3119 67.229C38.4626 67.957 39.7522 68.3303 41.0598 68.3139C42.0097 68.3516 42.9525 68.1077 43.8006 67.6049L69.0569 50.3849C69.3331 50.1993 69.7878 49.8234 69.7878 49.3524C69.7878 48.9622 69.4508 48.277 68.5088 47.6394L61.3339 42.7717C60.1836 42.0421 58.8939 41.6672 57.586 41.6821H57.6063Z" fill="#C1BFEF"/>
<g style="mix-blend-mode:multiply">
<path d="M34.7254 71.9777L25.4715 65.7159C23.5347 64.4074 22.4261 62.5707 22.4261 60.6769C22.4261 59.0116 23.2382 57.5365 24.7569 56.5183L52.482 37.7613C53.9959 36.8174 55.6931 36.3501 57.4074 36.4052C59.5843 36.388 61.7292 37.02 63.6402 38.2419L40.9583 72.425H35.4604C35.2452 72.3251 34.7254 71.9777 34.7254 71.9777ZM57.586 41.6821C56.6355 41.6434 55.6922 41.889 54.8452 42.3958L29.5686 59.6301C29.2925 59.8157 28.8377 60.1964 28.8377 60.6627C28.8377 61.129 29.1747 61.738 30.1167 62.3756L37.2916 67.229C38.4423 67.957 39.7319 68.3303 41.0395 68.3139C41.9895 68.3516 42.9322 68.1077 43.7803 67.6049L69.0569 50.3849C69.3331 50.1993 69.7878 49.8234 69.7878 49.3524C69.7878 48.9622 69.4508 48.277 68.5088 47.6394L61.3339 42.7717C60.1836 42.0421 58.8939 41.6672 57.586 41.6821Z" fill="#7F7A6E"/>
</g>
<path d="M45.2746 71.2638L72.9997 52.5022C75.5497 50.7797 75.2289 47.7439 72.285 45.7788L63.0312 39.517C60.0914 37.528 55.641 37.3092 53.091 39.0412L25.3659 57.7981C22.816 59.5205 23.1367 62.5563 26.0806 64.5214L35.3345 70.7833C38.2743 72.7722 42.7246 72.9863 45.2746 71.2638Z" fill="#7BEFB8"/>
<path d="M23.6443 24.7571C23.6443 24.7571 23.6768 59.5587 23.6443 60.6198C23.6037 61.9711 24.428 63.4034 26.0806 64.5168V28.7397L23.6443 24.7571Z" fill="#00937E"/>
<path d="M35.3345 34.8824L26.0806 28.6206V64.5214L35.3345 70.7832V34.8824Z" fill="#007264"/>
<g style="mix-blend-mode:multiply">
<path d="M35.3345 34.8824L26.0806 28.6206V46.8922L35.3345 34.8824Z" fill="#C9C9C9"/>
</g>
<g style="mix-blend-mode:multiply">
<path d="M35.3345 53.1494L26.0806 46.8923V64.4978L35.3345 53.1494Z" fill="#C9C9C9"/>
</g>
<path d="M40.3045 33.8643V72.4059C42.1521 72.5248 43.959 72.1537 45.2746 71.2686V35.4868C43.7463 34.5055 42.0456 33.9503 40.3045 33.8643Z" fill="#6ED3A1"/>
<path d="M35.3345 35.0015V70.7786C36.8623 71.7612 38.5633 72.3165 40.3046 72.4012V33.8596C38.453 33.7311 36.642 34.1165 35.3345 35.0015Z" fill="#49A594"/>
<path d="M45.2746 35.3109L72.9997 16.554V52.5071L45.2746 71.264V35.3109Z" fill="#7BEFB8"/>
<path d="M45.2746 53.3111L72.9997 34.5542V52.507L45.2746 53.3111Z" fill="#B0FFD5"/>
<path d="M45.2746 35.5106L72.9997 16.7537V34.5542L45.2746 35.5106Z" fill="#B0FFD5"/>
<path d="M72.9997 52.5023C74.1569 51.7219 74.7213 50.6751 74.7213 49.5807C74.7213 48.2579 74.7213 13.6609 74.7213 13.6609L72.9997 16.7252V52.5023Z" fill="#CDFFB8"/>
<path d="M72.9997 52.5023C74.1569 51.7219 74.7213 50.6751 74.7213 49.5807C74.7213 48.258 74.7213 38.7558 74.7213 40.6781C74.7213 42.6004 72.9997 43.7424 72.9997 43.7424V52.5023Z" fill="#DEEDFF"/>
<path d="M69.1178 10.6108L61.9632 5.75745C59.6853 4.21579 56.2339 4.04925 54.2483 5.38155L28.9554 22.6254C26.978 23.9624 27.2257 26.2939 29.5077 27.8594L36.6826 32.7128C38.9605 34.2592 42.4119 34.4257 44.3975 33.0887L69.6782 15.8258C71.6475 14.4888 71.3998 12.1525 69.1178 10.6108Z" fill="#AEFFCF"/>
<path d="M74.7295 38.8081C74.7295 39.9025 74.1367 40.9065 73.0525 41.663L45.2056 60.5008C42.68 62.2138 38.2459 61.9949 35.3223 60.025L26.0278 53.7156C24.5051 52.6878 23.6362 51.3365 23.6362 49.9994C23.6362 48.905 23.6362 48.8384 23.6362 48.8384C23.4972 49.2038 23.4252 49.5994 23.425 49.9994C23.425 51.4269 24.3346 52.8544 25.9182 53.9202L35.2127 60.2106C36.957 61.3197 38.9128 61.8926 40.8974 61.8759C42.421 61.926 43.9304 61.5199 45.2827 60.6959L73.1297 41.8533C74.2788 41.0778 74.9081 39.9976 74.9081 38.8176C74.906 38.4035 74.8328 37.9941 74.6929 37.6138L74.7295 38.8081Z" fill="#57C1B9"/>
<path d="M74.7295 35.0681C74.7295 36.1625 74.1367 37.1712 73.0525 37.923L45.2056 56.7656C42.68 58.4738 38.2459 58.2597 35.3223 56.2898L26.0278 49.9708C24.5051 48.9383 23.6362 47.5917 23.6362 46.2499C23.6362 45.1555 23.6362 45.0889 23.6362 45.0889C23.4981 45.4546 23.4262 45.85 23.425 46.2499C23.425 47.6774 24.3346 49.1048 25.9182 50.1754L35.2127 56.4611C36.9563 57.5723 38.9126 58.1454 40.8974 58.1264C42.4211 58.178 43.9308 57.7718 45.2827 56.9464L73.154 38.1086C74.3031 37.333 74.9325 36.2529 74.9325 35.0681C74.9296 34.6541 74.8565 34.2448 74.7173 33.8643L74.7295 35.0681Z" fill="#57C1B9"/>
<path d="M74.7295 31.352C74.7295 32.4464 74.1367 33.4504 73.0525 34.2069L45.2056 53.0019C42.68 54.7149 38.2459 54.496 35.3223 52.5261L26.0278 46.231C24.5051 45.2032 23.6362 43.8519 23.6362 42.5148C23.6362 41.4204 23.6362 41.3538 23.6362 41.3538C23.4972 41.7192 23.4252 42.1147 23.425 42.5148C23.425 43.9423 24.3346 45.3697 25.9182 46.4356L35.2127 52.7259C36.957 53.8351 38.9128 54.408 40.8974 54.3913C42.421 54.4414 43.9304 54.0353 45.2827 53.2113L73.1297 34.3687C74.2788 33.5931 74.9081 32.5178 74.9081 31.333C74.906 30.9189 74.8328 30.5095 74.6929 30.1292L74.7295 31.352Z" fill="#57C1B9"/>
<path d="M74.7295 27.5977C74.7295 28.6874 74.1367 29.6961 73.0525 30.4241L45.2056 49.2667C42.68 50.9749 38.2459 50.7608 35.3223 48.7909L26.0278 42.4957C24.5051 41.4632 23.6362 40.1166 23.6362 38.7748C23.6362 37.6804 23.6362 37.6138 23.6362 37.6138C23.4981 37.9795 23.4262 38.3749 23.425 38.7748C23.425 40.2023 24.3346 41.6297 25.9182 42.7003L35.2127 48.986C36.9563 50.0972 38.9126 50.6703 40.8974 50.6513C42.4211 50.7029 43.9308 50.2967 45.2827 49.4713L73.1297 30.6335C74.2788 29.8579 74.9081 28.7778 74.9081 27.5977C74.9057 27.1821 74.8325 26.7713 74.6929 26.3892L74.7295 27.5977Z" fill="#57C1B9"/>
<path d="M74.7295 23.8576C74.7295 24.952 74.1367 25.956 73.0525 26.7126L45.2056 45.5551C42.68 47.2633 38.2459 47.0445 35.3223 45.0793L26.0278 38.7556C24.5051 37.7279 23.6362 36.3765 23.6362 35.0395C23.6362 33.9451 23.6362 33.8785 23.6362 33.8785C23.4972 34.2438 23.4252 34.6394 23.425 35.0395C23.425 36.4669 24.3346 37.8944 25.9182 38.9602L35.2127 45.2506C36.957 46.3597 38.9128 46.9327 40.8974 46.916C42.421 46.9661 43.9304 46.5599 45.2827 45.7359L73.1297 26.8934C74.2788 26.1178 74.9081 25.0424 74.9081 23.8576C74.906 23.4435 74.8328 23.0341 74.6929 22.6538L74.7295 23.8576Z" fill="#57C1B9"/>
<path d="M74.7295 20.1227C74.7295 21.2123 74.1367 22.221 73.0525 22.949L45.2056 41.7916C42.68 43.4998 38.2459 43.2857 35.3223 41.3158L26.0278 35.0206C24.5051 33.9881 23.6362 32.6415 23.6362 31.2997C23.6362 30.2053 23.6362 30.1387 23.6362 30.1387C23.4981 30.5044 23.4262 30.8998 23.425 31.2997C23.425 32.7272 24.3346 34.1546 25.9182 35.2252L35.2127 41.5156C36.957 42.6247 38.9128 43.1977 40.8974 43.181C42.4215 43.2311 43.9312 42.8232 45.2827 41.9962L73.1297 23.1584C74.2788 22.3828 74.9081 21.3027 74.9081 20.1227C74.9057 19.707 74.8325 19.2962 74.6929 18.9141L74.7295 20.1227Z" fill="#57C1B9"/>
<path d="M74.7295 16.3825C74.7295 17.4769 74.1367 18.4809 73.0525 19.2375L45.2056 38.08C42.68 39.7882 38.2459 39.5694 35.3223 37.6042L26.0278 31.2805C24.5051 30.2528 23.6362 28.9014 23.6362 27.5644C23.6362 26.47 23.6362 26.4034 23.6362 26.4034C23.4972 26.7687 23.4252 27.1643 23.425 27.5644C23.425 28.9918 24.3346 30.4193 25.9182 31.4851L35.2208 37.7755C36.9652 38.8846 38.921 39.4576 40.9055 39.4409C42.4373 39.4959 43.9556 39.0896 45.3152 38.2608L73.1621 19.4183C74.3113 18.6427 74.9406 17.5673 74.9406 16.3825C74.9385 15.9684 74.8653 15.559 74.7254 15.1787L74.7295 16.3825Z" fill="#57C1B9"/>
<path d="M56.9039 9.96376L51.1339 6.06202L56.9039 2.15552L62.6738 6.06202L56.9039 9.96376ZM51.5399 6.06202L56.9039 9.68779L62.2678 6.06202L56.9039 2.43149L51.5399 6.06202Z" fill="#57C1B9"/>
<path d="M62.4586 13.7466L56.6846 9.81629L62.4546 5.91455L68.2205 9.81629L62.4586 13.7466ZM57.0907 9.81629L62.4546 13.4468L67.8144 9.81629L62.4546 6.19053L57.0907 9.81629Z" fill="#57C1B9"/>
<path d="M68.0094 17.4771L62.2434 13.5753L68.0094 9.67358L73.7793 13.5753L68.0094 17.4771ZM62.6495 13.5753L68.0094 17.2059L73.3733 13.5753L68.0094 9.94005L62.6495 13.5753Z" fill="#57C1B9"/>
<path d="M51.3328 13.7465L45.5629 9.83998L51.3328 5.93823L57.0988 9.83998L51.3328 13.7465ZM45.9689 9.83998L51.3328 13.4705L56.6846 9.82094L51.3247 6.19518L45.9689 9.83998Z" fill="#57C1B9"/>
<path d="M56.8836 17.4817L51.1177 13.58L56.8836 9.67822L62.6536 13.58L56.8836 17.4817ZM51.5237 13.58L56.8836 17.2105L62.2475 13.58L56.8836 9.93992L51.5237 13.58Z" fill="#57C1B9"/>
<path d="M62.4383 21.2407L56.6846 17.339L62.4546 13.4373L68.2246 17.339L62.4383 21.2407ZM57.0907 17.339L62.4546 20.9648L67.8185 17.339L62.4546 13.7085L57.0907 17.339Z" fill="#57C1B9"/>
<path d="M45.77 17.4865L40 13.5847L45.77 9.67822L51.5399 13.5847L45.77 17.4865ZM40.4061 13.5847L45.77 17.2105L51.1339 13.5847L45.77 9.93992L40.4061 13.5847Z" fill="#57C1B9"/>
<path d="M51.3247 21.2455L45.5548 17.339L51.3247 13.4373L57.0907 17.339L51.3247 21.2455ZM45.9608 17.339L51.3247 20.9695L56.6846 17.339L51.3247 13.7132L45.9608 17.339Z" fill="#57C1B9"/>
<path d="M56.8795 24.9998L51.1095 21.098L56.8795 17.1963L62.6454 21.098L56.8795 24.9998ZM51.5156 21.098L56.8795 24.7286L62.2394 21.098L56.8795 17.4723L51.5156 21.098Z" fill="#57C1B9"/>
<path d="M40.199 21.2501L34.429 17.3436L40.199 13.4419L45.9689 17.3436L40.199 21.2501ZM34.835 17.3436L40.199 20.9742L45.5629 17.3436L40.199 13.7179L34.835 17.3436Z" fill="#57C1B9"/>
<path d="M45.7537 25.0044L39.9838 21.1027L45.7537 17.2009L51.5197 21.1027L45.7537 25.0044ZM40.3898 21.1027L45.7537 24.7332L51.1136 21.1027L45.7537 17.4769L40.3898 21.1027Z" fill="#57C1B9"/>
<path d="M51.3045 28.7636L45.5345 24.8618L51.3045 20.9553L57.0907 24.8618L51.3045 28.7636ZM45.9405 24.8618L51.3045 28.4971L56.6846 24.8618L51.3207 21.2313L45.9405 24.8618Z" fill="#57C1B9"/>
<path d="M34.632 25.0141L28.8621 21.1123L34.632 17.2058L40.402 21.1123L34.632 25.0141ZM29.2681 21.1123L34.632 24.7381L39.9959 21.1123L34.632 17.4818L29.2681 21.1123Z" fill="#57C1B9"/>
<path d="M40.1868 28.7731L34.4168 24.8666L40.1868 20.9648L45.9527 24.8666L40.1868 28.7731ZM34.8229 24.8666L40.1868 28.4971L45.5466 24.8666L40.1868 21.2408L34.8229 24.8666Z" fill="#57C1B9"/>
<path d="M45.7213 32.5271L39.9513 28.6254L45.7213 24.7236L51.4912 28.6254L45.7213 32.5271ZM40.3573 28.6254L45.7213 32.2559L51.0852 28.6254L45.7213 24.9996L40.3573 28.6254Z" fill="#57C1B9"/>
<path d="M29.0448 28.7872L24.696 23.9005L29.0732 20.9695L34.8432 24.8712L29.0448 28.7872ZM25.0127 23.9481L29.0732 28.497L34.4209 24.876L29.0732 21.2455L25.0127 23.9481Z" fill="#57C1B9"/>
<path d="M34.6117 32.532L28.8417 28.6303L34.6117 24.7285L40.3817 28.6303L34.6117 32.532ZM29.2478 28.6303L34.6117 32.2608L39.9756 28.6303L34.6117 25.0045L29.2478 28.6303Z" fill="#57C1B9"/>
<path d="M40.1665 36.291L34.3965 32.3893L40.1665 28.4971L45.9365 32.3988L40.1665 36.291ZM34.8026 32.3893L40.1665 36.0151L45.5304 32.3893L40.1665 28.7588L34.8026 32.3893Z" fill="#57C1B9"/>
<path d="M27.8266 23.9243C28.0859 23.3708 28.4785 22.919 28.9554 22.6253L54.2483 5.38146C55.3757 4.70382 56.6381 4.3948 57.9027 4.48691C59.3236 4.52283 60.7162 4.95856 61.9632 5.75736L69.1382 10.6107C69.831 11.0353 70.4038 11.6866 70.7867 12.4855C71.4811 11.8684 72.1072 11.1523 72.6505 10.3538L63.0312 3.75415C61.4173 2.72136 59.6153 2.15834 57.7769 2.11256C56.1539 1.99976 54.535 2.40252 53.091 3.27832L25.569 21.5071C26.1475 22.511 26.9213 23.3395 27.8266 23.9243Z" fill="#817E8C"/>
<path d="M57.923 4.48702C59.3299 4.53195 60.7076 4.96735 61.9429 5.75747L69.1178 10.6109C69.8107 11.0354 70.3835 11.6867 70.7664 12.4856C71.4608 11.8685 72.0869 11.1524 72.6302 10.3539L63.0312 3.75425C61.4568 2.73816 59.6992 2.17395 57.9027 2.10791C57.9027 2.10791 57.9027 4.48702 57.923 4.48702Z" fill="#4D4654"/>
<path d="M74.3559 11.5388C73.7793 12.2288 73.2961 13.0234 72.7074 13.7133C72.0351 14.5177 71.1818 15.0821 70.2467 15.3406C70.0681 15.5208 69.875 15.6802 69.6701 15.8165L44.3894 33.065C42.412 34.4021 38.9605 34.2355 36.6745 32.6891L29.4996 27.8357C29.0827 27.5629 28.7024 27.2199 28.3707 26.8175C26.5094 26.0434 24.9067 24.5952 23.7946 22.6826L23.6524 22.7777V24.7572C23.5712 26.1323 24.3955 27.6121 26.0887 28.7398L35.3426 35.0016C38.2824 36.9905 42.7327 37.2094 45.2827 35.4774L73.0078 16.7158C74.1773 15.9259 74.7295 14.8648 74.7295 13.7514V11.791L74.3559 11.5388Z" fill="#817E8C"/>
<path d="M45.2746 32.6984C43.2971 34.0355 38.9605 34.2353 36.6826 32.6984L29.5077 27.845C29.0909 27.5723 28.7105 27.2292 28.3789 26.8268C26.5135 26.0519 24.9075 24.6001 23.7946 22.6824L23.6524 22.7775V24.757C23.5712 26.1321 24.3955 27.6119 26.0887 28.7396L35.3426 35.0014C38.2824 36.9903 42.7327 37.2092 45.2827 35.4772L45.2746 32.6984Z" fill="#4D4654"/>
<path d="M45.2746 32.6986C43.285 34.0356 37.6003 33.7311 35.3345 32.1895V35.0016C38.2743 36.9905 42.7246 37.2094 45.2746 35.4774V32.6986Z" fill="#63617F"/>
<path d="M51.3126 5.38159C52.44 4.70395 53.7024 4.39493 54.967 4.48705C56.3879 4.52296 57.7805 4.95869 59.0275 5.75749V2.77885C57.517 1.76059 56.6968 2.16503 54.8574 2.09842C53.1032 2.03656 52.5673 1.68445 51.3247 2.52666L51.3126 5.38159Z" fill="#63617F"/>
<path d="M72.285 7.90358L63.0312 1.64652C60.0914 -0.347178 55.641 -0.561298 53.091 1.1707L25.3659 19.9324C22.816 21.6548 23.1367 24.6906 26.0806 26.6557L35.3345 32.9176C38.2743 34.9065 42.7246 35.1206 45.2746 33.3934L72.9997 14.6365C75.5497 12.9092 75.2289 9.89728 72.285 7.90358ZM69.6782 13.7467L44.3894 31.0047C42.4119 32.3418 38.9605 32.1753 36.6744 30.6289L29.4995 25.7755C27.2175 24.2338 26.9698 21.9023 28.9473 20.5414L54.2483 3.32141C56.2258 1.98911 59.6772 2.15565 61.9632 3.69731L69.1382 8.5507C71.3999 10.0924 71.6475 12.4287 69.6782 13.7467Z" fill="#C1BFEF"/>
<g style="mix-blend-mode:multiply">
<path d="M70.8273 12.4379C70.3224 11.554 69.6389 10.8299 68.8377 10.33L61.9633 5.65746C58.2317 3.54957 55.1741 4.9009 55.1741 4.9009C56.3411 5.04368 57.4711 5.46297 58.4956 6.13328L65.6664 10.9867C67.7211 12.3761 68.1271 14.4078 66.7465 15.7734C66.7465 15.7734 69.8244 13.7464 70.2183 13.3277C70.4748 13.0874 70.6828 12.7836 70.8273 12.4379Z" fill="#9B9483"/>
</g>
<path d="M52.08 27.3169C52.0262 27.3169 51.9745 27.2918 51.9365 27.2472C51.8984 27.2026 51.877 27.1421 51.877 27.079V21.764C51.877 21.7009 51.8984 21.6404 51.9365 21.5958C51.9745 21.5512 52.0262 21.5261 52.08 21.5261C52.1339 21.5261 52.1855 21.5512 52.2236 21.5958C52.2616 21.6404 52.283 21.7009 52.283 21.764V27.0695C52.2841 27.1015 52.2797 27.1334 52.27 27.1634C52.2603 27.1934 52.2455 27.2208 52.2265 27.2439C52.2076 27.267 52.1848 27.2854 52.1596 27.2979C52.1344 27.3105 52.1074 27.3169 52.08 27.3169Z" fill="#63617F"/>
<path d="M62.2759 20.4413C62.2221 20.4413 62.1704 20.4162 62.1323 20.3716C62.0943 20.327 62.0729 20.2664 62.0729 20.2033V14.8646C62.0739 14.8019 62.0956 14.7421 62.1335 14.6977C62.1713 14.6534 62.2224 14.6279 62.2759 14.6267C62.3297 14.6267 62.3814 14.6518 62.4195 14.6964C62.4575 14.741 62.4789 14.8015 62.4789 14.8646V20.2033C62.4789 20.2664 62.4575 20.327 62.4195 20.3716C62.3814 20.4162 62.3297 20.4413 62.2759 20.4413Z" fill="#63617F"/>
<g style="mix-blend-mode:multiply">
<path d="M46.0989 27.0694L56.2989 20.17C58.0774 18.9662 57.854 16.8678 55.7994 15.4784C53.7489 14.089 50.6426 13.9368 48.8641 15.1406L38.6682 22.04C36.8897 23.2438 37.113 25.3422 39.1676 26.7316C41.2182 28.1115 44.3244 28.2638 46.0989 27.0694Z" fill="#9B9483"/>
</g>
<path d="M60.8994 14.1366L50.7035 21.036C48.925 22.2351 47.4835 20.9599 47.4835 18.1811C47.4835 15.407 48.925 12.181 50.7035 10.9771L60.8994 4.0777C62.6779 2.87387 64.1194 4.14907 64.1194 6.93263C64.1194 9.70668 62.6779 12.9327 60.8994 14.1366Z" fill="#E2CF5D"/>
<path d="M60.8994 14.1366L52.2181 12.0097C50.4436 13.2135 48.9169 12.181 50.6954 10.9771L60.8913 4.0777C62.6698 2.87387 64.1113 4.14907 64.1113 6.93263C64.1194 9.70668 62.6779 12.9327 60.8994 14.1366Z" fill="#FFFF92"/>
<path d="M49.4203 21.8354C49.0786 21.8384 48.7423 21.7349 48.4458 21.5356C47.6337 20.9932 47.1871 19.7703 47.1871 18.2048C47.1871 15.3214 48.6976 11.9573 50.5532 10.7011L60.7451 3.77791C61.614 3.18789 62.4667 3.11652 63.1448 3.57807C63.9569 4.12051 64.4077 5.34337 64.4077 6.90882C64.4077 9.79231 62.8972 13.1611 61.0415 14.4173L50.8497 21.3595C50.4171 21.6624 49.9242 21.8265 49.4203 21.8354ZM62.1784 3.973C61.7785 3.99035 61.3894 4.12977 61.0496 4.37745L50.8497 11.2769C49.1564 12.4236 47.7799 15.5212 47.7799 18.1811C47.7799 19.5134 48.1332 20.5173 48.7423 20.9313C49.2336 21.2644 49.8751 21.193 50.5532 20.7315L60.7451 13.832C62.4343 12.6901 63.8148 9.59246 63.8148 6.92786C63.8148 5.59556 63.4616 4.59633 62.8484 4.1776C62.6437 4.04343 62.413 3.97299 62.1784 3.973Z" fill="#EB99FF"/>
<path d="M62.4262 15.1739L52.2181 22.0638C50.4436 23.2677 49.0021 21.9925 49.0021 19.2089C49.0021 16.4349 50.4436 13.2088 52.2181 12.005L62.418 5.10553C64.1965 3.9017 65.638 5.1769 65.638 7.96046C65.6461 10.7393 64.2047 13.9653 62.4262 15.1739Z" fill="white"/>
<path d="M50.9471 22.8681C50.6053 22.8711 50.269 22.7677 49.9726 22.5684C49.1605 22.0259 48.7138 20.8031 48.7138 19.2376C48.7138 16.3541 50.2243 12.9853 52.08 11.7339L62.2759 4.8297C63.1489 4.24444 64.0016 4.17307 64.6797 4.63462C65.4918 5.17705 65.9425 6.39516 65.9425 7.96537C65.9425 10.8489 64.432 14.2177 62.5764 15.4738L52.3764 22.3733C51.9455 22.6828 51.4524 22.8535 50.9471 22.8681ZM63.7052 5.00576C63.3053 5.02311 62.9162 5.16252 62.5764 5.41021L52.3764 12.3191C50.6832 13.4659 49.3067 16.5635 49.3067 19.2233C49.3067 20.5556 49.6559 21.5596 50.269 21.9736C50.7603 22.3019 51.4019 22.2353 52.08 21.7737L62.2759 14.8743C63.9691 13.7276 65.3497 10.63 65.3497 7.97013C65.3497 6.63783 64.9964 5.63384 64.3833 5.21988C64.1778 5.07848 63.9436 5.00452 63.7052 5.00576Z" fill="#EB99FF"/>
<path d="M45.2746 62.5041L72.9997 43.7424V52.5071L45.2746 71.264V62.5041Z" fill="white"/>
<path d="M35.3345 61.9901L26.0806 55.7283V64.5215L35.3345 70.7833V61.9901Z" fill="#6A869E"/>
<path d="M49.7086 68.3138L55.7994 64.1837V57.8647L49.7086 61.9996V68.3138Z" fill="#7BEFB8"/>
<path d="M63.3438 59.0496L69.4386 54.9195V48.6006L63.3438 52.7355V59.0496Z" fill="#7BEFB8"/>
<path d="M55.7994 64.1837V57.8647L49.7086 61.9996L55.7994 64.1837Z" fill="#B0FFD5"/>
<path d="M69.4386 54.9195V48.6006L63.3438 52.7355L69.4386 54.9195Z" fill="#B0FFD5"/>
<path d="M63.3438 59.2875C63.29 59.2875 63.2383 59.2625 63.2002 59.2178C63.1622 59.1732 63.1408 59.1127 63.1408 59.0496V52.7307C63.1401 52.689 63.1493 52.6479 63.1672 52.6118C63.1851 52.5757 63.211 52.5461 63.2423 52.5261L66.2877 50.461C66.3106 50.4415 66.3369 50.4277 66.3646 50.4208C66.3924 50.4138 66.4211 50.4138 66.4489 50.4206C66.4767 50.4275 66.503 50.4411 66.526 50.4606C66.549 50.4801 66.5683 50.5051 66.5826 50.5339C66.5969 50.5626 66.6058 50.5946 66.6089 50.6277C66.612 50.6608 66.6091 50.6943 66.6004 50.726C66.5918 50.7577 66.5775 50.7869 66.5586 50.8118C66.5397 50.8366 66.5166 50.8565 66.4907 50.8702L63.5468 52.8687V59.0544C63.5458 59.1166 63.5239 59.1759 63.4859 59.2195C63.448 59.2631 63.397 59.2875 63.3438 59.2875Z" fill="#EB99FF"/>
<path d="M66.3892 57.1748C66.3353 57.1748 66.2837 57.1497 66.2456 57.1051C66.2076 57.0605 66.1862 57 66.1862 56.9369V50.6656C66.1864 50.624 66.1959 50.5833 66.2137 50.5474C66.2315 50.5115 66.257 50.4817 66.2877 50.461L69.3371 48.3959C69.368 48.375 69.403 48.364 69.4386 48.364C69.4743 48.364 69.5093 48.375 69.5401 48.3959C69.5708 48.4166 69.5963 48.4465 69.6141 48.4823C69.6319 48.5182 69.6414 48.559 69.6416 48.6005V54.9194C69.6406 54.9821 69.6189 55.0419 69.581 55.0863C69.5432 55.1306 69.4921 55.1561 69.4386 55.1573C69.3848 55.1573 69.3331 55.1323 69.2951 55.0876C69.257 55.043 69.2356 54.9825 69.2356 54.9194V49.0145L66.5922 50.8035V56.9369C66.5922 57 66.5708 57.0605 66.5327 57.1051C66.4947 57.1497 66.443 57.1748 66.3892 57.1748Z" fill="#EB99FF"/>
<path d="M40.3045 63.665V72.4011C42.1521 72.5201 43.959 72.1489 45.2746 71.2639V62.4993C43.742 63.4197 42.0214 63.8233 40.3045 63.665Z" fill="#C7DEFF"/>
<path d="M40.3046 63.665V72.4011C38.5513 72.3847 36.8343 71.8143 35.3345 70.75V61.9854C36.872 62.9484 38.5655 63.5207 40.3046 63.665Z" fill="#91B4D8"/>
<path d="M23.6443 52.6926C23.6443 52.6926 23.6768 59.5587 23.6443 60.6198C23.6037 61.9712 24.428 63.4034 26.0806 64.5168V55.7284C26.0806 55.7284 23.6443 54.0963 23.6443 52.6926Z" fill="#7FA0BF"/>
<path d="M52.7541 66.439C52.7002 66.439 52.6486 66.4139 52.6105 66.3693C52.5724 66.3247 52.551 66.2642 52.551 66.2011V59.9297C52.5512 59.8882 52.5607 59.8475 52.5785 59.8116C52.5963 59.7757 52.6219 59.7459 52.6525 59.7251L55.6979 57.66C55.7288 57.6392 55.7638 57.6282 55.7994 57.6282C55.8351 57.6282 55.8701 57.6392 55.9009 57.66C55.9322 57.68 55.9582 57.7097 55.9761 57.7457C55.994 57.7818 56.0031 57.8229 56.0025 57.8647V64.1836C56.0025 64.2467 55.9811 64.3072 55.943 64.3518C55.9049 64.3964 55.8533 64.4215 55.7994 64.4215C55.7459 64.4203 55.6949 64.3948 55.657 64.3505C55.6192 64.3061 55.5974 64.2463 55.5964 64.1836V58.2786L52.9571 60.0677V66.2011C52.9571 66.2642 52.9357 66.3247 52.8976 66.3693C52.8595 66.4139 52.8079 66.439 52.7541 66.439Z" fill="#EB99FF"/>
<path d="M49.7087 68.5518C49.6548 68.5518 49.6032 68.5267 49.5651 68.4821C49.527 68.4375 49.5056 68.377 49.5056 68.3139V61.995C49.5059 61.9534 49.5153 61.9127 49.5331 61.8768C49.551 61.8409 49.5765 61.8111 49.6072 61.7904L52.6525 59.7253C52.6754 59.7092 52.7007 59.6986 52.7271 59.6942C52.7534 59.6898 52.7803 59.6917 52.8061 59.6997C52.8318 59.7076 52.8559 59.7216 52.877 59.7407C52.898 59.7598 52.9156 59.7837 52.9286 59.8109C52.9555 59.866 52.9629 59.9312 52.9492 59.9926C52.9355 60.0539 52.9019 60.1066 52.8556 60.1393L49.9117 62.133V68.3186C49.9106 68.3809 49.8888 68.4402 49.8508 68.4838C49.8129 68.5274 49.7618 68.5518 49.7087 68.5518Z" fill="#EB99FF"/>
</g>
<defs>
<clipPath id="clip0_27_3407">
<rect width="80" height="80" fill="white"/>
</clipPath>
</defs>
</svg>
