<svg width="80" height="80" viewBox="0 0 80 80" fill="none" xmlns="http://www.w3.org/2000/svg">
<path d="M40.0002 1.71924C18.8777 1.71908 1.67969 18.9503 1.71876 40.0728C1.73079 46.5542 3.35547 52.6566 6.21001 58.0031L11.0511 60.416C29.5103 69.6161 50.9675 70.7111 70.2673 63.438C75.2898 56.9614 78.2813 48.8308 78.2813 40.0005C78.2813 18.8585 61.1422 1.71939 40.0002 1.71924Z" fill="#C8EFFE"/>
<path d="M48.0603 54.4858C47.1145 53.3675 45.7019 52.6567 44.1227 52.6567C43.4977 52.6567 42.8986 52.7681 42.3442 52.9717C42.0461 50.3442 39.8169 48.3025 37.1097 48.3025C35.7599 48.3025 34.5291 48.8106 33.5966 49.6453C32.6642 48.8106 31.4334 48.3025 30.0834 48.3025C27.1731 48.3025 24.8139 50.6617 24.8139 53.572C24.8139 54.1439 24.9063 54.6939 25.0747 55.2095C24.5473 55.3254 24.041 55.5221 23.5738 55.7926V63.5942H47.0578C47.1492 60.3653 47.4925 57.2701 48.0603 54.4858Z" fill="#78A91F"/>
<path d="M49.067 5.85571H37.7919C36.907 5.85571 36.1897 6.57306 36.1897 7.4579C36.1897 8.34274 36.907 9.06009 37.7919 9.06009H37.9106C38.7955 9.06009 39.5128 9.77743 39.5128 10.6623C39.5128 11.5471 38.7955 12.2645 37.9106 12.2645H36.2803C36.8164 13.2599 37.1618 14.3467 37.2988 15.469H47.1681C48.053 15.469 48.7703 14.7517 48.7703 13.8668C48.7703 12.982 48.053 12.2646 47.1681 12.2646H44.7944C43.9095 12.2646 43.1922 11.5473 43.1922 10.6624C43.1922 9.77759 43.9095 9.06024 44.7944 9.06024H49.067C49.9519 9.06024 50.6692 8.3429 50.6692 7.45806C50.6692 6.57321 49.9519 5.85571 49.067 5.85571ZM72.3386 12.5637H78.3978C79.2827 12.5637 80 11.8463 80 10.9615C80 10.0767 79.2827 9.35931 78.3978 9.35931H63.0811C62.1989 9.35931 61.4422 10.0495 61.4259 10.9315C61.4095 11.8301 62.133 12.5638 63.028 12.5638H65.3486C66.2308 12.5638 66.9875 13.254 67.0038 14.136C67.0202 15.0346 66.2967 15.7684 65.4017 15.7684H61.1822C60.3 15.7684 59.5433 16.4585 59.527 17.3406C59.5106 18.2392 60.2341 18.9729 61.1291 18.9729H72.3511C73.2333 18.9729 73.9902 18.2827 74.0063 17.4006C74.0227 16.502 73.2992 15.7684 72.4042 15.7684H72.2855C71.3906 15.7684 70.667 15.0348 70.6834 14.136C70.6995 13.2538 71.4564 12.5637 72.3386 12.5637ZM56.8353 20.1568H39.9163C39.6422 20.1568 39.3805 20.2235 39.1491 20.3418C41.7889 21.9442 43.5539 24.8431 43.5539 28.1568C43.5539 28.7074 43.5044 29.2465 43.4111 29.7704H49.1863C50.0684 29.7704 50.8253 29.0802 50.8414 28.1981C50.8578 27.2995 50.1344 26.5659 49.2394 26.5659H49.1739C48.2917 26.5659 47.5349 25.8757 47.5188 24.9935C47.5024 24.0949 48.2259 23.3613 49.1208 23.3613H56.7822C57.6644 23.3613 58.4211 22.6712 58.4374 21.7892C58.4536 20.8904 57.7302 20.1568 56.8353 20.1568Z" fill="#F2FBFF"/>
<path d="M52.161 63.5943C52.0072 58.156 51.1452 53.261 49.8245 49.6041C49.726 49.3312 49.3367 49.3312 49.2381 49.6041C47.9174 53.261 47.0553 58.156 46.9017 63.5943H52.161Z" fill="#8BC727"/>
<path d="M48.4694 63.438C48.6136 58.7646 49.2811 54.4996 50.313 51.0852C50.1632 50.5873 50.0004 50.0935 49.8245 49.6041C49.7259 49.3312 49.3367 49.3312 49.2381 49.6041C47.9301 53.2259 47.0725 58.0624 46.9067 63.438H48.4694Z" fill="#81B823"/>
<path d="M56.0753 63.5944C55.9416 57.1476 55.0742 51.3406 53.7367 47.0144C53.6456 46.7198 53.2295 46.7198 53.1384 47.0144C51.8009 51.3408 50.9334 57.1478 50.7998 63.5944H56.0753Z" fill="#78A91F"/>
<path d="M59.9735 63.5943C59.8197 58.156 58.9577 53.261 57.637 49.6041C57.5385 49.3312 57.1492 49.3312 57.0506 49.6041C55.7299 53.261 54.868 58.156 54.7142 63.5943H59.9735Z" fill="#8BC727"/>
<path d="M56.2819 63.438C56.4261 58.7646 57.0936 54.4996 58.1255 51.0852C57.9757 50.5873 57.8129 50.0935 57.637 49.6041C57.5384 49.3312 57.1492 49.3312 57.0506 49.6041C55.7426 53.2259 54.885 58.0624 54.7192 63.438H56.2819Z" fill="#81B823"/>
<path d="M63.8706 63.5942C63.6955 58.9905 62.8387 54.8506 61.5373 51.7472C61.4311 51.4938 61.0689 51.4938 60.9625 51.7472C59.6611 54.8506 58.8044 58.9906 58.6292 63.5942H63.8706Z" fill="#78A91F"/>
<path d="M16.6962 55.5524C18.2216 50.8582 11.4367 50.8582 12.962 55.5524C11.4367 50.8582 5.9478 54.8461 9.94093 57.7474C8.18468 56.4713 6.79562 57.0051 6.20999 58.003C7.25926 59.9692 8.47804 61.84 9.85249 63.5943H19.9801V53.6208C18.9111 53.0771 17.3917 53.4119 16.6962 55.5524Z" fill="#81B823"/>
<path d="M33.9361 61.2948C37.9292 58.3935 32.4403 54.4055 30.915 59.0998C32.4403 54.4055 25.6555 54.4055 27.1808 59.0998C26.4116 56.7324 24.6347 56.5737 23.5739 57.3698V63.5941H37.7378C38.642 61.8805 36.7664 59.2384 33.9361 61.2948ZM43.5541 28.1566C43.5541 23.9852 40.7587 20.4688 36.9398 19.3723C37.2257 18.4746 37.371 17.5381 37.3705 16.596C37.3705 11.5476 33.278 7.45508 28.2295 7.45508C25.7777 7.45508 23.5531 8.42227 21.9116 9.99352C20.2698 8.42227 18.0453 7.45508 15.5934 7.45508C10.545 7.45508 6.4525 11.5476 6.4525 16.596C6.45228 17.6017 6.61832 18.6006 6.94391 19.5521C2.95703 20.5362 0 24.1348 0 28.4255C0 32.6435 2.85781 36.1923 6.74219 37.2463C6.72899 37.4424 6.72201 37.6389 6.72125 37.8354C6.72125 42.8838 10.8137 46.9763 15.8622 46.9763C18.0866 46.9763 20.1248 46.181 21.7097 44.8604C23.2947 46.1812 25.3328 46.9763 27.5572 46.9763C32.6056 46.9763 36.6981 42.8838 36.6981 37.8354C36.6981 37.5599 36.6838 37.2879 36.6598 37.0185C40.6219 36.017 43.5541 32.4296 43.5541 28.1566Z" fill="#8BC727"/>
<path d="M11.6048 37.8354V37.8295C11.6052 37.6627 11.5532 37.5001 11.4561 37.3646C11.3591 37.2291 11.2219 37.1275 11.0639 37.0741C7.46891 35.844 4.88344 32.4376 4.88344 28.4255C4.88344 24.6079 7.22438 21.338 10.5487 19.9704C11.2308 19.6898 11.6186 18.9691 11.4855 18.2438C11.3857 17.7002 11.3356 17.1487 11.3358 16.596C11.3358 12.3941 14.172 8.8568 18.0338 7.78789C17.239 7.56716 16.4181 7.4552 15.5933 7.45508C10.5448 7.45508 6.45234 11.5476 6.45234 16.596C6.45212 17.6017 6.61816 18.6006 6.94375 19.5521C2.95703 20.5363 0 24.1349 0 28.4257C0 32.6437 2.85781 36.1924 6.74219 37.2465C6.72899 37.4426 6.72201 37.639 6.72125 37.8355C6.72125 42.884 10.8137 46.9765 15.8622 46.9765C16.6883 46.9769 17.5107 46.8654 18.3069 46.6449C14.4431 45.5773 11.6048 42.039 11.6048 37.8354Z" fill="#81B823"/>
<path d="M13.3142 30.1323L19.8239 33.8916V63.5943H23.7302V41.0233L32.4367 33.6844C33.2616 32.9893 33.3666 31.7571 32.6712 30.9323C31.9759 30.1074 30.7441 30.0026 29.9191 30.6977L23.73 35.9146V24.699C23.73 23.6204 22.8555 22.7458 21.7769 22.7458C20.6983 22.7458 19.8237 23.6204 19.8237 24.699V29.3807L15.2677 26.7494C14.3334 26.2101 13.1389 26.5299 12.5995 27.464C12.0603 28.3983 12.3802 29.5929 13.3142 30.1323Z" fill="#D88A55"/>
<path d="M13.3142 30.1322L19.8239 33.8915V63.4379H21.3803V33.6108C21.3803 33.0526 21.0825 32.5368 20.5992 32.2576L14.8706 28.9493C14.0097 28.452 13.6724 27.3986 14.047 26.5051C13.4622 26.5793 12.9174 26.9142 12.5997 27.464C12.0603 28.3983 12.3802 29.5928 13.3142 30.1322Z" fill="#C57A44"/>
<path d="M9.73267 63.438C16.7355 72.4681 27.6881 78.2817 40 78.2817C52.3119 78.2817 63.2645 72.4681 70.2674 63.438H9.73267Z" fill="#97D729"/>
<path d="M37.55 55.3266C38.3928 55.3266 39.0761 54.6433 39.0761 53.8005C39.0761 52.9577 38.3928 52.2744 37.55 52.2744C36.7072 52.2744 36.0239 52.9577 36.0239 53.8005C36.0239 54.6433 36.7072 55.3266 37.55 55.3266Z" fill="white"/>
<path d="M48.5437 41.6328C49.3866 41.6328 50.0698 40.9495 50.0698 40.1067C50.0698 39.2638 49.3866 38.5806 48.5437 38.5806C47.7009 38.5806 47.0176 39.2638 47.0176 40.1067C47.0176 40.9495 47.7009 41.6328 48.5437 41.6328Z" fill="#FE646F"/>
<path d="M66.825 48.5078C67.6678 48.5078 68.3511 47.8245 68.3511 46.9817C68.3511 46.1388 67.6678 45.4556 66.825 45.4556C65.9821 45.4556 65.2989 46.1388 65.2989 46.9817C65.2989 47.8245 65.9821 48.5078 66.825 48.5078Z" fill="#9857BD"/>
<path d="M41.4386 69.52H39.6305C39.3197 69.52 39.0216 69.3966 38.8018 69.1768C38.5821 68.957 38.4586 68.6589 38.4586 68.3481C38.4586 68.0373 38.5821 67.7393 38.8018 67.5195C39.0216 67.2997 39.3197 67.1763 39.6305 67.1763H41.4386C41.7494 67.1763 42.0475 67.2997 42.2672 67.5195C42.487 67.7393 42.6105 68.0373 42.6105 68.3481C42.6105 68.6589 42.487 68.957 42.2672 69.1768C42.0475 69.3966 41.7494 69.52 41.4386 69.52ZM49.6494 73.0474H47.8414C47.5306 73.0474 47.2325 72.9239 47.0128 72.7041C46.793 72.4844 46.6695 72.1863 46.6695 71.8755C46.6695 71.5647 46.793 71.2666 47.0128 71.0468C47.2325 70.8271 47.5306 70.7036 47.8414 70.7036H49.6494C49.9602 70.7036 50.2582 70.8271 50.478 71.0468C50.6978 71.2666 50.8213 71.5647 50.8213 71.8755C50.8213 72.1863 50.6978 72.4844 50.478 72.7041C50.2582 72.9239 49.9602 73.0474 49.6494 73.0474ZM58.9062 69.687H57.0983C56.7875 69.687 56.4894 69.5636 56.2696 69.3438C56.0499 69.124 55.9264 68.826 55.9264 68.5152C55.9264 68.2044 56.0499 67.9063 56.2696 67.6865C56.4894 67.4668 56.7875 67.3433 57.0983 67.3433H58.9062C59.2171 67.3433 59.5151 67.4668 59.7349 67.6865C59.9547 67.9063 60.0781 68.2044 60.0781 68.5152C60.0781 68.826 59.9547 69.124 59.7349 69.3438C59.5151 69.5636 59.2171 69.687 58.9062 69.687ZM22.9017 68.6724H21.0938C20.7829 68.6724 20.4849 68.5489 20.2651 68.3291C20.0453 68.1094 19.9219 67.8113 19.9219 67.5005C19.9219 67.1897 20.0453 66.8916 20.2651 66.6718C20.4849 66.4521 20.7829 66.3286 21.0938 66.3286H22.9017C23.2125 66.3286 23.5106 66.4521 23.7304 66.6718C23.9501 66.8916 24.0736 67.1897 24.0736 67.5005C24.0736 67.8113 23.9501 68.1094 23.7304 68.3291C23.5106 68.5489 23.2125 68.6724 22.9017 68.6724ZM31.9325 72.1916H30.1245C29.8137 72.1916 29.5157 72.0681 29.2959 71.8483C29.0761 71.6286 28.9527 71.3305 28.9527 71.0197C28.9527 70.7089 29.0761 70.4108 29.2959 70.1911C29.5157 69.9713 29.8137 69.8478 30.1245 69.8478H31.9325C32.2433 69.8478 32.5414 69.9713 32.7611 70.1911C32.9809 70.4108 33.1044 70.7089 33.1044 71.0197C33.1044 71.3305 32.9809 71.6286 32.7611 71.8483C32.5414 72.0681 32.2433 72.1916 31.9325 72.1916Z" fill="#78A91F"/>
<path d="M29.0625 17.813C30.0117 17.813 30.7812 17.0435 30.7812 16.0942C30.7812 15.145 30.0117 14.3755 29.0625 14.3755C28.1133 14.3755 27.3438 15.145 27.3438 16.0942C27.3438 17.0435 28.1133 17.813 29.0625 17.813Z" fill="#FEDF30"/>
<path d="M16.0938 19.688C17.043 19.688 17.8125 18.9185 17.8125 17.9692C17.8125 17.02 17.043 16.2505 16.0938 16.2505C15.1445 16.2505 14.375 17.02 14.375 17.9692C14.375 18.9185 15.1445 19.688 16.0938 19.688Z" fill="#FDB4BA"/>
<path d="M29.5312 42.3442C30.4805 42.3442 31.25 41.5747 31.25 40.6255C31.25 39.6762 30.4805 38.9067 29.5312 38.9067C28.582 38.9067 27.8125 39.6762 27.8125 40.6255C27.8125 41.5747 28.582 42.3442 29.5312 42.3442Z" fill="#FDB4BA"/>
<path d="M31.0938 27.5005C32.043 27.5005 32.8125 26.731 32.8125 25.7817C32.8125 24.8325 32.043 24.063 31.0938 24.063C30.1445 24.063 29.375 24.8325 29.375 25.7817C29.375 26.731 30.1445 27.5005 31.0938 27.5005Z" fill="#F2FBFF"/>
<path d="M15.3125 38.438C16.2617 38.438 17.0312 37.6685 17.0312 36.7192C17.0312 35.77 16.2617 35.0005 15.3125 35.0005C14.3633 35.0005 13.5938 35.77 13.5938 36.7192C13.5938 37.6685 14.3633 38.438 15.3125 38.438Z" fill="#F2FBFF"/>
<path d="M7.34375 29.2192C8.29299 29.2192 9.0625 28.4497 9.0625 27.5005C9.0625 26.5512 8.29299 25.7817 7.34375 25.7817C6.39451 25.7817 5.625 26.5512 5.625 27.5005C5.625 28.4497 6.39451 29.2192 7.34375 29.2192Z" fill="#FEDF30"/>
</svg>
