<svg width="80" height="80" viewBox="0 0 80 80" fill="none" xmlns="http://www.w3.org/2000/svg">
<path d="M79.3846 46.0688V49.6295L40.1342 72.4387V68.8787L79.3846 46.0688Z" fill="#8FB545"/>
<path d="M40.1342 68.8786V72.4386L0.615387 49.6263V46.0657L40.1342 68.8786Z" fill="#9FC14C"/>
<path d="M79.3846 49.6011V53.1611L40.1342 75.9709V72.4109L79.3846 49.6011Z" fill="#875744"/>
<path d="M40.1342 72.4111V75.9711L0.615387 53.1588V49.5981L40.1342 72.4111Z" fill="#9E6A4D"/>
<path d="M79.3846 46.0689L40.1342 68.8787L0.615387 46.0664L39.8763 23.2566L79.3846 46.0689Z" fill="#B2CC5E"/>
<path d="M52.0862 34.5741L52.0449 55.315L22.6745 38.3581L22.7163 17.6172L52.0862 34.5741Z" fill="#DADADA"/>
<path d="M70.1231 24.0922L52.0862 34.574L22.7163 17.6171L40.7532 7.13525L70.1231 24.0922Z" fill="#EBEBEB"/>
<path d="M70.1231 24.0922L70.0812 44.8331L52.0443 55.3149L52.0862 34.574L63.4351 23.0029L70.1231 24.0922Z" fill="#CCCCCC"/>
<path d="M65.8991 36.779L62.4929 38.6743V31.5968L65.8985 29.7002L65.8991 36.779Z" fill="#5F6269"/>
<path d="M65.8991 36.779L62.4929 38.6743V31.5968L65.8985 29.7002L65.8991 36.779Z" fill="#78C2FF"/>
<path d="M65.5421 36.606V29.8928L65.8991 29.7002V36.779L65.5421 36.606Z" fill="#C1C1C1"/>
<path d="M62.4923 38.2626L65.5422 36.606L65.8991 36.7783L62.4929 38.6736L62.4923 38.2626Z" fill="white"/>
<path d="M61.9791 31.3477V39.6123L66.4123 37.0277V28.7637L61.9791 31.3477ZM65.8991 33.1692L64.2228 34.1144V32.64L65.8985 31.6911L65.8991 33.1692ZM64.0197 34.2283L62.4929 35.0898V33.6191L64.0197 32.7538V34.2283ZM62.4929 31.5969L64.0197 30.7464V32.5206L62.4929 33.3846V31.5969ZM65.8985 29.7003V31.4572L64.2228 32.4055V30.6332L65.8985 29.7003ZM65.8985 36.7791L64.2228 37.712V34.3483L65.8985 33.4031V36.7791ZM62.4929 38.6744V35.3231L64.0197 34.4627V37.824L62.4929 38.6744Z" fill="#4C525D"/>
<path d="M60.8862 39.6121L57.48 41.5075V34.4287L60.8862 32.5327V39.6121Z" fill="#5F6269"/>
<path d="M60.8862 39.6121L57.48 41.5075V34.4287L60.8862 32.5327V39.6121Z" fill="#78C2FF"/>
<path d="M60.5292 39.4385V32.7259L60.8862 32.5339V39.6121L60.5292 39.4385Z" fill="#C1C1C1"/>
<path d="M57.48 41.0953L60.5292 39.4387L60.8862 39.6116L57.48 41.507V41.0953Z" fill="white"/>
<path d="M56.9662 34.1808V42.4442L61.4 39.8608V31.5962L56.9662 34.1808ZM60.8862 36.0023L59.2099 36.9476V35.4719L60.8862 34.5236V36.0023ZM59.0074 37.0608L57.48 37.9223V36.4516L59.0074 35.5863V37.0608ZM57.48 34.4294L59.0074 33.579V35.3531L57.48 36.2171V34.4294ZM60.8862 32.5334V34.2897L59.2099 35.2387V33.4663L60.8862 32.5334ZM60.8862 39.6116L59.2099 40.5451V37.1808L60.8862 36.2356V39.6116ZM57.48 41.507V38.1562L59.0074 37.2953V40.6571L57.48 41.507Z" fill="#4C525D"/>
<path d="M63.4338 22.5771L31.6117 4.02881L42.0794 6.63189L73.9015 25.1802L63.4338 22.5771Z" fill="#E25656"/>
<path d="M53.1975 37.4134L21.3754 18.8645L21.1988 18.6873L53.0215 37.2356L53.1975 37.4134Z" fill="#B74848"/>
<path d="M53.0215 37.2356L21.1982 18.6873L31.6123 4.02881L63.4338 22.5771L53.0215 37.2356Z" fill="#F06260"/>
<path d="M73.9028 25.1845L73.8874 25.2153L73.7286 25.558L63.4369 23.003L53.1957 37.4116L53.0215 37.238L63.4314 22.5783L73.8929 25.174L73.9028 25.1845ZM32.1095 4.31865L31.6117 4.02881L42.0794 6.63189L42.5778 6.92112L32.1095 4.31865Z" fill="#CC4E4E"/>
<path d="M21.6966 18.9771L21.1988 18.6873L31.6123 4.02881L32.1095 4.31865L21.6966 18.9771Z" fill="#E25656"/>
<path d="M33.856 5.33721L33.3588 5.04736L43.8265 7.65044L44.3243 7.93967L33.856 5.33721Z" fill="#CC4E4E"/>
<path d="M23.4437 19.9957L22.9459 19.7058L33.3582 5.04736L33.8566 5.33721L23.4437 19.9957Z" fill="#E25656"/>
<path d="M35.6031 6.35552L35.1058 6.06567L45.5735 8.66875L46.0714 8.95798L35.6031 6.35552Z" fill="#CC4E4E"/>
<path d="M25.1902 21.014L24.6929 20.7241L35.1052 6.06567L35.6037 6.35552L25.1902 21.014Z" fill="#E25656"/>
<path d="M37.3501 7.37407L36.8523 7.08423L47.3206 9.6873L47.8178 9.97654L37.3501 7.37407Z" fill="#CC4E4E"/>
<path d="M26.9372 22.0325L26.44 21.7427L36.8523 7.08423L37.3502 7.37346L26.9372 22.0325Z" fill="#E25656"/>
<path d="M39.0972 8.39239L38.5994 8.10254L49.0671 10.7056L49.5655 10.9948L39.0972 8.39239Z" fill="#CC4E4E"/>
<path d="M28.6843 23.0508L28.1865 22.761L38.5994 8.10254L39.0972 8.39177L28.6843 23.0508Z" fill="#E25656"/>
<path d="M40.8443 9.41094L40.3465 9.12109L50.8142 11.7242L51.3126 12.0134L40.8443 9.41094Z" fill="#CC4E4E"/>
<path d="M30.4308 24.0695L29.9335 23.7791L40.3465 9.12061L40.8443 9.41107L30.4308 24.0695Z" fill="#E25656"/>
<path d="M42.5908 10.4295L42.0935 10.1396L52.5612 12.7427L53.0591 13.032L42.5908 10.4295Z" fill="#CC4E4E"/>
<path d="M32.1785 25.0878L31.6806 24.7974L42.0929 10.1389L42.5914 10.4294L32.1785 25.0878Z" fill="#E25656"/>
<path d="M44.3385 11.4479L43.84 11.1575L54.3083 13.7605L54.8061 14.0504L44.3385 11.4479Z" fill="#CC4E4E"/>
<path d="M33.9256 26.1064L33.4277 25.8159L43.84 11.1575L44.3385 11.4479L33.9256 26.1064Z" fill="#E25656"/>
<path d="M46.0849 12.4662L45.5877 12.1758L56.0554 14.7789L56.5532 15.0687L46.0849 12.4662Z" fill="#CC4E4E"/>
<path d="M35.672 27.1247L35.1748 26.8342L45.5871 12.1758L46.0849 12.4662L35.672 27.1247Z" fill="#E25656"/>
<path d="M47.832 13.4848L47.3342 13.1943L57.8019 15.7974L58.3003 16.0873L47.832 13.4848Z" fill="#CC4E4E"/>
<path d="M37.4191 28.1433L36.9218 27.8528L47.3342 13.1943L47.832 13.4848L37.4191 28.1433Z" fill="#E25656"/>
<path d="M49.5791 14.5026L49.0812 14.2134L59.5489 16.8158L60.0474 17.1057L49.5791 14.5026Z" fill="#CC4E4E"/>
<path d="M39.1662 29.1611L38.6683 28.8718L49.0812 14.2134L49.5791 14.5026L39.1662 29.1611Z" fill="#E25656"/>
<path d="M51.3255 15.5217L50.8283 15.2312L61.296 17.8343L61.7945 18.1241L51.3255 15.5217Z" fill="#CC4E4E"/>
<path d="M40.9133 30.1796L40.4154 29.8904L50.8283 15.2319L51.3256 15.5212L40.9133 30.1796Z" fill="#E25656"/>
<path d="M53.0726 16.5395L52.5754 16.2502L63.0431 18.8527L63.5409 19.1426L53.0726 16.5395Z" fill="#CC4E4E"/>
<path d="M42.6603 31.1981L42.1625 30.9082L52.5748 16.2498L53.0732 16.5396L42.6603 31.1981Z" fill="#E25656"/>
<path d="M54.8197 17.558L54.3224 17.2688L64.7901 19.8713L65.288 20.1611L54.8197 17.558Z" fill="#CC4E4E"/>
<path d="M44.4068 32.2166L43.9095 31.9268L54.3219 17.2683L54.8203 17.5582L44.4068 32.2166Z" fill="#E25656"/>
<path d="M56.5662 18.5765L56.0689 18.2866L66.5372 20.8897L67.0345 21.1795L56.5662 18.5765Z" fill="#CC4E4E"/>
<path d="M46.1538 33.2349L45.6566 32.9451L56.0689 18.2866L56.5668 18.5765L46.1538 33.2349Z" fill="#E25656"/>
<path d="M58.3139 19.595L57.816 19.3052L68.2837 21.9083L68.7822 22.1975L58.3139 19.595Z" fill="#CC4E4E"/>
<path d="M47.9015 34.2535L47.4031 33.9636L57.816 19.3052L58.3138 19.595L47.9015 34.2535Z" fill="#E25656"/>
<path d="M60.0609 20.6133L59.5631 20.3235L70.0308 22.9266L70.5292 23.2158L60.0609 20.6133Z" fill="#CC4E4E"/>
<path d="M49.648 35.2718L49.1501 34.9819L59.5631 20.3235L60.0609 20.6133L49.648 35.2718Z" fill="#E25656"/>
<path d="M61.8074 21.6319L61.3102 21.342L71.7778 23.9451L72.2757 24.2343L61.8074 21.6319Z" fill="#CC4E4E"/>
<path d="M51.3951 36.2903L50.8972 36.0005L61.3096 21.342L61.808 21.6319L51.3951 36.2903Z" fill="#E25656"/>
<path d="M73.9028 25.1846L73.8874 25.2154L63.5545 22.6492L63.4314 22.5785L63.0579 22.3582L73.5237 24.9643L73.8929 25.1742L73.9028 25.1846Z" fill="#CC4E4E"/>
<path d="M53.1422 37.3089L52.6443 37.0191L63.0566 22.3606L63.5551 22.6504L53.1422 37.3089Z" fill="#E25656"/>
<path d="M37.0929 36.6934L39.1016 37.8534L39.4179 38.0361L39.4172 38.3931L39.1009 38.2109L37.0917 37.0509L37.0929 36.6934Z" fill="#B7805A"/>
<path d="M37.0929 36.6933L37.0972 35.1143L39.1065 36.2743L39.1015 37.8533L37.0929 36.6933Z" fill="#4C525D"/>
<path d="M39.1065 36.2744V36.1384L39.4228 36.3212L39.4179 38.0363L39.1015 37.8535L39.1065 36.2744ZM34.2615 40.632L34.2492 45.0332L39.3889 48L39.4012 43.5987L34.2615 40.632ZM39.1539 43.7975L39.1428 47.4837V47.563L39.0732 47.523L34.5268 44.8978L34.4572 44.8578V44.7778L34.4683 41.0923V41.0123L34.5379 41.0529L39.0843 43.6781L39.1539 43.7181V43.7975Z" fill="#B7805A"/>
<path d="M39.0154 43.7968L39.0049 47.3236L34.5963 44.7783L34.6062 41.2522L39.0154 43.7968ZM37.7643 45.851L37.7699 43.8405L35.2369 42.3777L35.2308 44.3882L37.7643 45.851Z" fill="#B7805A"/>
<path d="M37.7698 43.8398L37.7637 45.8509L35.2314 44.3881L35.2369 42.3777L37.7698 43.8398Z" fill="#9E6A4D"/>
<path d="M39.0843 43.6781L39.1539 43.7181V43.7974L39.1428 47.4836V47.563L39.0739 47.523L34.5262 44.8977L34.4572 44.8577V44.7777L34.4683 41.0922V41.0122L34.5379 41.0528L39.0843 43.6781ZM39.0043 47.3236L39.0148 43.7974L34.6062 41.2516L34.5963 44.7784L39.0043 47.3236Z" fill="#9E6A4D"/>
<path d="M34.5502 40.345L34.5637 35.5918L36.736 36.8453L36.7225 41.5992L34.5502 40.345Z" fill="#4C525D"/>
<path d="M34.4166 35.1482L34.5643 35.2343L36.7366 36.4879L36.736 36.8454L34.5637 35.5913L34.416 35.5057L34.4166 35.1482Z" fill="#B7805A"/>
<path d="M37.0782 41.8049L37.0917 37.051L39.1009 38.211L39.0874 42.9649L37.0782 41.8049Z" fill="#4C525D"/>
<path d="M39.0874 42.9648L39.1009 38.211L39.4172 38.3937L39.4031 43.2836L39.0868 43.1008L39.0874 42.9648ZM37.0979 34.9784L37.0972 35.1144L37.0929 36.6934L37.0917 37.051L37.0782 41.8048V41.9408L36.7219 41.7353V41.5999L36.736 36.8461L36.7366 36.4885L36.7416 34.9101V34.7734L37.0979 34.9784Z" fill="#B7805A"/>
<path d="M34.5649 35.2337L34.5692 33.6553L36.7415 34.9094L36.7366 36.4879L34.5649 35.2337Z" fill="#4C525D"/>
<path d="M34.2621 40.7193L34.2837 33.0522L39.424 36.0202L39.4228 36.3212L39.1065 36.1384V36.2744L37.0972 35.1144V34.979L36.7415 34.7729V34.9095L34.5692 33.6553L34.5649 35.2338L34.4166 35.1482L34.4154 35.5058L34.5637 35.5919L34.5501 40.3452L36.7225 41.5993V41.7353L37.0775 41.9409L37.0781 41.8049L39.0874 42.9649V43.1002L39.4031 43.2836L39.4018 43.6867L34.2621 40.7193Z" fill="#B7805A"/>
<path d="M39.3889 48.0006L21.6585 58.2375L16.5182 55.2695L34.2486 45.0332L39.3889 48.0006Z" fill="white"/>
<path d="M27.2892 46.1642L18.3951 40.9955L18.3723 32.9592L27.2665 38.1285L27.2892 46.1642Z" fill="#DADADA"/>
<path d="M27.2665 38.128L18.3723 32.96L22.8117 27.1384L31.7065 32.3077L27.2665 38.128Z" fill="#EBEBEB"/>
<path d="M31.7065 32.3069L31.7379 43.5961L27.2893 46.1647L27.2665 38.1278L31.7065 32.3069Z" fill="#CCCCCC"/>
<path d="M19.6394 34.1956L19.6025 41.1777L26.4739 45.1445L26.5108 38.1623L19.6394 34.1956Z" fill="#5F656F"/>
<path d="M19.6363 34.1956L19.6345 34.318L26.5071 38.2854V38.1623L19.6363 34.1956ZM19.6326 34.7949L19.6308 34.9174L26.5034 38.8848V38.7617L19.6326 34.7949ZM19.6295 35.3943L19.6277 35.5162L26.5003 39.4842V39.3611L19.6295 35.3943ZM19.6258 35.9937L19.624 36.1156L26.4972 40.0836V39.9605L19.6258 35.9937ZM19.6228 36.5925L19.6209 36.7156L26.4935 40.6829V40.5599L19.6228 36.5925ZM19.6191 37.1919L19.6172 37.3143L26.4905 41.2823V41.1586L19.6191 37.1919ZM19.616 37.7906L19.6142 37.9137L26.4868 41.8811V41.758L19.616 37.7906ZM19.6123 38.3906L19.6105 38.5131L26.4837 42.4805V42.3574L19.6123 38.3906ZM19.6092 38.9894L19.6074 39.1125L26.48 43.0799V42.9568L19.6092 38.9894ZM19.6062 39.5888L19.6043 39.7119L26.4769 43.6792V43.5562L19.6062 39.5888ZM19.6025 40.1691L19.6006 40.2916L26.4732 44.2596V44.1359L19.6025 40.1691ZM19.6025 40.7876L19.6006 40.91L26.4732 44.878V44.7543L19.6025 40.7876Z" fill="#555B66"/>
<path d="M19.6394 34.1955L19.0905 33.8779L19.0702 41.4152L19.6025 41.1776L19.6394 34.1955Z" fill="#CCCCCC"/>
<path d="M19.6025 41.1777L19.0702 41.4153L26.4905 45.6996L26.4739 45.1445L19.6025 41.1777Z" fill="white"/>
<path d="M26.4905 45.6988L13.2135 53.3653L5.78769 49.0515L19.0646 41.3862L26.4905 45.6988Z" fill="white"/>
<path d="M46.8837 57.4769L37.9895 52.3077L37.9668 44.2708L46.8609 49.44L46.8837 57.4769Z" fill="#DADADA"/>
<path d="M46.8615 49.4399L37.9668 44.2706L42.4062 38.4497L51.3003 43.6189L46.8615 49.4399Z" fill="#EBEBEB"/>
<path d="M51.3003 43.6184L51.3323 54.9083L46.8837 57.4763L46.8609 49.4399L51.3003 43.6184Z" fill="#CCCCCC"/>
<path d="M39.2339 45.5076L39.1969 52.4891L46.0677 56.4559L46.1046 49.4743L39.2339 45.5076Z" fill="#5F656F"/>
<path d="M39.2308 45.5076L39.2289 45.6294L46.1015 49.5974V49.4743L39.2308 45.5076ZM39.2271 46.1063L39.2252 46.2294L46.0985 50.1968V50.0737L39.2271 46.1063ZM39.224 46.7057L39.2221 46.8288L46.0948 50.7962V50.6731L39.224 46.7057ZM39.2203 47.3051L39.2185 47.4276L46.0923 51.3956V51.2725L39.2203 47.3051ZM39.2172 47.9045L39.2154 48.027L46.088 51.9943V51.8713L39.2172 47.9045ZM39.2135 48.5039L39.2117 48.6263L46.0849 52.5937V52.4706L39.2135 48.5039ZM39.2105 49.1033L39.2086 49.2251L46.0812 53.1931V53.07L39.2105 49.1033ZM39.2068 49.702L39.2049 49.8251L46.0781 53.7925V53.6694L39.2068 49.702ZM39.2037 50.3014L39.2018 50.4245L46.0745 54.3919V54.2688L39.2037 50.3014ZM39.2 50.9008L39.1981 51.0233L46.0714 54.9913V54.8682L39.2 50.9008ZM39.1969 51.4811L39.1951 51.6036L46.0677 55.571V55.4479L39.1969 51.4811ZM39.1969 52.0996L39.1951 52.222L46.0677 56.1894V56.0663L39.1969 52.0996Z" fill="#555B66"/>
<path d="M39.2338 45.5075L38.6849 45.1899L38.6646 52.7266L39.1969 52.489L39.2338 45.5075Z" fill="#CCCCCC"/>
<path d="M39.1969 52.489L38.6646 52.7266L46.0849 57.0109L46.0677 56.4558L39.1969 52.489Z" fill="white"/>
<path d="M46.0849 57.011L32.808 64.6768L25.3821 60.3642L38.6591 52.699L46.0849 57.011Z" fill="white"/>
<path d="M6.80308 45.5821C7.25231 45.8418 7.25847 46.2652 6.80801 46.5261C6.35877 46.7876 5.62462 46.7876 5.17539 46.5279C4.72247 46.2664 4.72001 45.8418 5.16985 45.5802C5.6197 45.3187 6.35016 45.3206 6.80308 45.5821Z" fill="#9FC14C"/>
<path d="M6.42093 43.6011L6.41477 45.8983C6.41477 45.9617 6.37293 46.0251 6.28985 46.0731C6.12247 46.1703 5.85108 46.1703 5.68247 46.0731C5.59816 46.0239 5.5557 45.9599 5.55631 45.8959L5.56246 43.5986C5.56246 43.6626 5.60493 43.7266 5.68923 43.7759C5.85785 43.8731 6.12923 43.8731 6.296 43.7759C6.37908 43.7272 6.42093 43.6645 6.42093 43.6011Z" fill="#875744"/>
<path d="M6.29415 43.4238C6.46276 43.521 6.46338 43.6785 6.29599 43.7758C6.12923 43.873 5.85723 43.873 5.68923 43.7758C5.52123 43.6785 5.51999 43.521 5.68738 43.4238C5.85415 43.3272 6.12615 43.3272 6.29415 43.4238Z" fill="#89633E"/>
<path d="M8.61109 42.6903C8.61109 43.6417 7.39878 44.4134 5.90586 44.4134C4.41294 44.4134 3.20001 43.6411 3.20001 42.6897C3.20001 42.2337 3.4794 41.6989 3.93478 41.2651C4.42832 40.7986 5.12924 40.4509 5.90524 40.4509C6.68124 40.4509 7.38155 40.7986 7.87447 41.2651C8.33047 41.6983 8.61047 42.2337 8.61047 42.6897L8.61109 42.6903Z" fill="#8FB545"/>
<path d="M7.8757 41.2658C7.49109 41.7212 6.76063 42.0209 5.90586 42.0209C5.05109 42.0209 4.32063 41.7206 3.93539 41.2658C4.42893 40.7994 5.12986 40.4517 5.90586 40.4517C6.68186 40.4517 7.38216 40.7994 7.87509 41.2658H7.8757Z" fill="#81AA40"/>
<path d="M7.99385 40.5185C7.99385 41.2527 7.05846 41.8478 5.90585 41.8478C4.752 41.8478 3.81723 41.2527 3.81723 40.5185C3.81723 40.145 4.05969 39.7038 4.44985 39.3604C4.82523 39.0293 5.33969 38.7893 5.90585 38.7893C6.472 38.7893 6.98523 39.0293 7.36123 39.3604C7.75138 39.7038 7.99385 40.145 7.99385 40.5185Z" fill="#8FB545"/>
<path d="M7.36124 39.3604C7.05848 39.6822 6.52494 39.8921 5.90586 39.8921C5.28678 39.8921 4.75201 39.6828 4.44986 39.3604C4.82524 39.0293 5.33971 38.7893 5.90586 38.7893C6.47201 38.7893 6.98524 39.0293 7.36124 39.3604Z" fill="#81AA40"/>
<path d="M7.45662 38.7322C7.45662 39.2774 6.76247 39.7193 5.90585 39.7193C5.04924 39.7193 4.35385 39.2774 4.35385 38.7316C4.35385 38.1857 5.90524 35.9827 5.90524 35.9827C5.90524 35.9827 7.45662 38.187 7.45662 38.7322Z" fill="#8FB545"/>
<path d="M13.3415 41.8461C13.7914 42.1046 13.7969 42.528 13.3477 42.7895C12.8972 43.0511 12.1637 43.0511 11.7145 42.7914C11.2615 42.5298 11.2591 42.1052 11.7089 41.8437C12.1588 41.5821 12.8892 41.584 13.3421 41.8455L13.3415 41.8461Z" fill="#9FC14C"/>
<path d="M12.96 39.8645L12.9538 42.1618C12.9538 42.2251 12.9114 42.2885 12.8289 42.3365C12.6615 42.4338 12.3901 42.4338 12.2215 42.3365C12.1372 42.2873 12.0948 42.2233 12.0948 42.1593L12.1015 39.8621C12.1015 39.9261 12.1434 39.9901 12.2283 40.0393C12.3963 40.1365 12.6683 40.1365 12.8351 40.0393C12.9181 39.9913 12.96 39.9279 12.96 39.8645Z" fill="#875744"/>
<path d="M12.8332 39.6872C13.0019 39.7844 13.0025 39.942 12.8351 40.0392C12.6683 40.1364 12.3963 40.1364 12.2283 40.0392C12.0603 39.942 12.0591 39.7844 12.2265 39.6872C12.3932 39.5906 12.6652 39.5906 12.8332 39.6872Z" fill="#89633E"/>
<path d="M15.1501 38.9536C15.1501 39.905 13.9378 40.6767 12.4449 40.6767C10.952 40.6767 9.73969 39.905 9.73969 38.9536C9.73969 38.4976 10.0191 37.9628 10.4745 37.529C10.968 37.0625 11.6689 36.7148 12.4449 36.7148C13.2209 36.7148 13.9212 37.0625 14.4141 37.529C14.8701 37.9622 15.1501 38.4976 15.1501 38.9536Z" fill="#8FB545"/>
<path d="M14.4148 37.529C14.0301 37.9844 13.2997 38.2841 12.4449 38.2841C11.5901 38.2841 10.8597 37.9838 10.4745 37.529C10.968 37.0625 11.6689 36.7148 12.4449 36.7148C13.2209 36.7148 13.9218 37.0625 14.4148 37.529Z" fill="#81AA40"/>
<path d="M14.5329 36.782C14.5329 37.5161 13.5976 38.1112 12.4449 38.1112C11.2911 38.1112 10.3563 37.5161 10.3563 36.782C10.3563 36.4084 10.5988 35.9672 10.9889 35.6238C11.3643 35.2927 11.8788 35.0527 12.4449 35.0527C13.0111 35.0527 13.5243 35.2927 13.9003 35.6238C14.2905 35.9672 14.5329 36.4084 14.5329 36.782Z" fill="#8FB545"/>
<path d="M13.9003 35.6244C13.5975 35.9457 13.064 36.1555 12.4443 36.1555C11.8246 36.1555 11.2911 35.9463 10.9889 35.6238C11.3643 35.2927 11.8788 35.0527 12.4449 35.0527C13.0111 35.0527 13.5243 35.2934 13.9003 35.6244Z" fill="#81AA40"/>
<path d="M13.9957 34.995C13.9957 35.5409 13.3015 35.9827 12.4449 35.9827C11.5883 35.9827 10.8929 35.5409 10.8929 34.995C10.8929 34.4492 12.4443 32.2461 12.4443 32.2461C12.4443 32.2461 13.9957 34.4498 13.9957 34.995Z" fill="#8FB545"/>
<path d="M39.9446 65.825C40.3939 66.0847 40.3994 66.5081 39.9495 66.769C39.4997 67.0305 38.7662 67.0305 38.3163 66.7709C37.864 66.5093 37.8609 66.0847 38.3114 65.8232C38.7606 65.5616 39.4911 65.5635 39.944 65.825H39.9446Z" fill="#9FC14C"/>
<path d="M39.5619 63.8443L39.5557 66.1415C39.5557 66.2049 39.5138 66.2683 39.4308 66.3163C39.264 66.4135 38.992 66.4135 38.824 66.3163C38.7391 66.267 38.6972 66.203 38.6972 66.139L38.7034 63.8418C38.7034 63.9058 38.7459 63.9704 38.8302 64.019C38.9988 64.1163 39.2702 64.1163 39.4375 64.019C39.5206 63.9704 39.5612 63.9076 39.5619 63.8443Z" fill="#875744"/>
<path d="M39.4357 63.6676C39.6037 63.7643 39.6043 63.9218 39.4376 64.0184C39.2702 64.1163 38.9988 64.1163 38.8302 64.0184C38.6622 63.9218 38.6616 63.7643 38.8283 63.6676C38.9957 63.5704 39.2677 63.5704 39.4357 63.6676Z" fill="#89633E"/>
<path d="M41.752 62.9333C41.752 63.8847 40.5403 64.6564 39.0468 64.6564C37.5532 64.6564 36.3416 63.8847 36.3416 62.9333C36.3416 62.4773 36.6209 61.9426 37.0769 61.5087C37.5705 61.0423 38.2708 60.6946 39.0468 60.6946C39.8228 60.6946 40.5237 61.0423 41.0166 61.5087C41.472 61.942 41.752 62.4773 41.752 62.9333Z" fill="#8FB545"/>
<path d="M41.0166 61.5087C40.632 61.9641 39.9022 62.2638 39.0474 62.2638C38.1926 62.2638 37.4616 61.9635 37.0769 61.5087C37.5705 61.0423 38.2708 60.6946 39.0468 60.6946C39.8228 60.6946 40.5237 61.0423 41.0166 61.5087Z" fill="#81AA40"/>
<path d="M41.1348 60.7617C41.1348 61.4959 40.1994 62.0909 39.0468 62.0909C37.8929 62.0909 36.9588 61.4959 36.9588 60.7617C36.9588 60.3882 37.2012 59.9469 37.5908 59.6035C37.9662 59.2725 38.4806 59.0325 39.0468 59.0325C39.6129 59.0325 40.1262 59.2725 40.5028 59.6035C40.8923 59.9469 41.1348 60.3882 41.1348 60.7617Z" fill="#8FB545"/>
<path d="M40.5028 59.6035C40.1994 59.9254 39.6658 60.1352 39.0468 60.1352C38.4277 60.1352 37.8929 59.926 37.5908 59.6035C37.9661 59.2725 38.4806 59.0325 39.0468 59.0325C39.6129 59.0325 40.1261 59.2725 40.5028 59.6035Z" fill="#81AA40"/>
<path d="M40.5982 58.9748C40.5982 59.5206 39.9034 59.9624 39.0468 59.9624C38.1902 59.9624 37.4954 59.5206 37.4954 58.9748C37.4954 58.4289 39.0462 56.2258 39.0462 56.2258C39.0462 56.2258 40.5982 58.4295 40.5982 58.9748Z" fill="#8FB545"/>
<path d="M46.4831 62.0884C46.9323 62.3481 46.9385 62.7715 46.4886 63.0324C46.0388 63.294 45.3052 63.294 44.8554 63.0343C44.4031 62.7734 44.4 62.3481 44.8505 62.0866C45.2997 61.8251 46.0302 61.8269 46.4831 62.0884Z" fill="#9FC14C"/>
<path d="M46.1016 60.1077L46.0948 62.4049C46.0948 62.4683 46.0529 62.5317 45.9699 62.5797C45.8031 62.6769 45.5311 62.6769 45.3631 62.5797C45.2782 62.5305 45.2363 62.4665 45.2363 62.4025L45.2425 60.1052C45.2425 60.1692 45.2849 60.2332 45.3692 60.2825C45.5379 60.3797 45.8092 60.3797 45.9766 60.2825C46.0597 60.2338 46.1009 60.1711 46.1016 60.1077Z" fill="#875744"/>
<path d="M45.9748 59.9311C46.1428 60.0277 46.1434 60.1852 45.9766 60.2818C45.8092 60.3797 45.5378 60.3797 45.3692 60.2818C45.2012 60.1852 45.2006 60.0277 45.3674 59.9311C45.5342 59.8338 45.8068 59.8338 45.9748 59.9311Z" fill="#89633E"/>
<path d="M48.2911 59.1968C48.2911 60.1482 47.0794 60.9199 45.5858 60.9199C44.0923 60.9199 42.8806 60.1482 42.8806 59.1968C42.8806 58.7408 43.16 58.206 43.616 57.7722C44.1095 57.3057 44.8098 56.958 45.5858 56.958C46.3618 56.958 47.0628 57.3057 47.5557 57.7722C48.0111 58.2054 48.2911 58.7408 48.2911 59.1968Z" fill="#8FB545"/>
<path d="M47.5557 57.7722C47.1711 58.2275 46.4412 58.5272 45.5858 58.5272C44.7305 58.5272 44.0006 58.2269 43.616 57.7722C44.1095 57.3057 44.8098 56.958 45.5858 56.958C46.3618 56.958 47.0628 57.3057 47.5557 57.7722Z" fill="#81AA40"/>
<path d="M47.6739 57.0251C47.6739 57.7593 46.7385 58.3544 45.5859 58.3544C44.432 58.3544 43.4979 57.7593 43.4979 57.0251C43.4979 56.6516 43.7403 56.2104 44.1299 55.867C44.5052 55.5359 45.0197 55.2959 45.5859 55.2959C46.152 55.2959 46.6653 55.5359 47.0419 55.867C47.4314 56.2104 47.6739 56.6516 47.6739 57.0251Z" fill="#8FB545"/>
<path d="M47.0419 55.867C46.7385 56.1888 46.2049 56.3987 45.5859 56.3987C44.9668 56.3987 44.432 56.1894 44.1299 55.867C44.5052 55.5359 45.0197 55.2959 45.5859 55.2959C46.152 55.2959 46.6652 55.5359 47.0419 55.867Z" fill="#81AA40"/>
<path d="M47.1372 55.2386C47.1372 55.7838 46.4425 56.2256 45.5858 56.2256C44.7292 56.2256 44.0345 55.7838 44.0345 55.2379C44.0345 54.6921 45.5852 52.489 45.5852 52.489C45.5852 52.489 47.1372 54.6933 47.1372 55.2386Z" fill="#8FB545"/>
<path d="M68.6486 48.9302C69.0979 49.1899 69.104 49.6133 68.6536 49.8742C68.2043 50.1358 67.4702 50.1358 67.0209 49.8761C66.568 49.6152 66.5656 49.1899 67.0154 48.9284C67.4653 48.6669 68.1957 48.6693 68.6486 48.9302Z" fill="#9FC14C"/>
<path d="M68.2665 46.9495L68.2603 49.2467C68.2603 49.3101 68.2185 49.3735 68.1354 49.4215C67.968 49.5187 67.6966 49.5187 67.528 49.4215C67.4437 49.3723 67.4012 49.3083 67.4012 49.2443L67.408 46.947C67.408 47.011 67.4505 47.0756 67.5348 47.1243C67.7034 47.2215 67.9748 47.2215 68.1416 47.1243C68.2246 47.0763 68.2665 47.0129 68.2665 46.9495Z" fill="#875744"/>
<path d="M68.1397 46.7729C68.3083 46.8701 68.3089 47.027 68.1415 47.1243C67.9748 47.2215 67.7028 47.2215 67.5348 47.1243C67.3668 47.027 67.3655 46.8701 67.5329 46.7729C67.6997 46.6756 67.9717 46.6756 68.1397 46.7729Z" fill="#89633E"/>
<path d="M70.4566 46.0392C70.4566 46.99 69.2443 47.7616 67.7514 47.7616C66.2572 47.7616 65.0461 46.99 65.0461 46.0386C65.0461 45.5826 65.3255 45.0478 65.7809 44.614C66.2745 44.1475 66.9754 43.7998 67.7514 43.7998C68.5274 43.7998 69.2277 44.1475 69.7212 44.614C70.1766 45.0472 70.4566 45.5826 70.4566 46.0392Z" fill="#8FB545"/>
<path d="M69.7212 44.6146C69.336 45.0693 68.6061 45.3696 67.7514 45.3696C66.8966 45.3696 66.1661 45.0693 65.7809 44.6146C66.2745 44.1469 66.9754 43.7998 67.7514 43.7998C68.5268 43.7998 69.2283 44.1475 69.7212 44.6146Z" fill="#81AA40"/>
<path d="M69.84 43.8669C69.84 44.6011 68.9046 45.1968 67.7514 45.1968C66.5975 45.1968 65.6628 44.6011 65.6628 43.8675C65.6628 43.4934 65.9052 43.0522 66.2954 42.7088C66.6708 42.3777 67.1852 42.1377 67.7514 42.1377C68.3175 42.1377 68.8308 42.3777 69.2068 42.7088C69.5969 43.0522 69.84 43.4934 69.84 43.8669Z" fill="#8FB545"/>
<path d="M69.2068 42.7088C68.904 43.0306 68.3705 43.2405 67.7514 43.2405C67.1323 43.2405 66.5975 43.0312 66.2954 42.7088C66.6708 42.3777 67.1852 42.1377 67.7514 42.1377C68.3175 42.1377 68.8308 42.3777 69.2068 42.7088Z" fill="#81AA40"/>
<path d="M69.3028 42.08C69.3028 42.6258 68.6074 43.0677 67.7508 43.0677C66.8942 43.0677 66.2 42.6258 66.2 42.08C66.2 41.5341 67.7508 39.3311 67.7508 39.3311C67.7508 39.3311 69.3028 41.5347 69.3028 42.08Z" fill="#8FB545"/>
<path d="M75.1877 45.1937C75.6369 45.4534 75.6431 45.8768 75.1926 46.1377C74.7434 46.3992 74.0092 46.3992 73.56 46.1395C73.1071 45.8786 73.1046 45.4534 73.5545 45.1918C74.0043 44.9303 74.7348 44.9328 75.1877 45.1937Z" fill="#9FC14C"/>
<path d="M74.8062 43.2129L74.7988 45.5101C74.7988 45.5735 74.7575 45.6369 74.6745 45.6849C74.5071 45.7821 74.2357 45.7821 74.0671 45.6849C73.9828 45.6357 73.9403 45.5717 73.9409 45.5077L73.9471 43.2104C73.9471 43.2744 73.9895 43.3391 74.0738 43.3877C74.2425 43.4849 74.5138 43.4849 74.6806 43.3877C74.7637 43.3397 74.8062 43.2763 74.8062 43.2129Z" fill="#875744"/>
<path d="M74.6788 43.0363C74.8474 43.1335 74.848 43.2905 74.6806 43.3877C74.5138 43.4849 74.2425 43.4849 74.0738 43.3877C73.9058 43.2905 73.9046 43.1335 74.072 43.0363C74.2388 42.9391 74.5108 42.9391 74.6788 43.0363Z" fill="#89633E"/>
<path d="M76.9957 42.3026C76.9957 43.2534 75.7834 44.0251 74.2905 44.0251C72.7975 44.0251 71.5852 43.2534 71.5852 42.302C71.5852 41.846 71.8646 41.3112 72.32 40.878C72.8135 40.4103 73.5145 40.0632 74.2905 40.0632C75.0665 40.0632 75.7668 40.4109 76.2597 40.878C76.7157 41.3106 76.9957 41.846 76.9957 42.3026Z" fill="#8FB545"/>
<path d="M76.2603 40.878C75.8751 41.3322 75.1452 41.6325 74.2905 41.6325C73.4357 41.6325 72.7052 41.3328 72.32 40.878C72.8135 40.4103 73.5145 40.0632 74.2905 40.0632C75.0665 40.0632 75.7674 40.4109 76.2603 40.878Z" fill="#81AA40"/>
<path d="M76.3785 40.1304C76.3785 40.8645 75.4431 41.4602 74.2905 41.4602C73.1366 41.4602 72.2018 40.8645 72.2018 40.131C72.2018 39.7568 72.4443 39.3156 72.8345 38.9722C73.2098 38.6411 73.7243 38.4011 74.2905 38.4011C74.8566 38.4011 75.3698 38.6411 75.7458 38.9722C76.136 39.3156 76.3785 39.7568 76.3785 40.1304Z" fill="#8FB545"/>
<path d="M75.7459 38.9722C75.4431 39.294 74.9095 39.5039 74.2905 39.5039C73.6714 39.5039 73.1366 39.2947 72.8345 38.9722C73.2099 38.6411 73.7243 38.4011 74.2905 38.4011C74.8566 38.4011 75.3699 38.6411 75.7459 38.9722Z" fill="#81AA40"/>
<path d="M75.8412 38.3439C75.8412 38.8891 75.1471 39.3316 74.2905 39.3316C73.4339 39.3316 72.7385 38.8891 72.7385 38.3439C72.7385 37.7987 74.2899 35.595 74.2899 35.595C74.2899 35.595 75.8412 37.798 75.8412 38.3439Z" fill="#8FB545"/>
<path d="M26.44 24.0657L26.4277 26.859L24.4228 25.702L24.4351 22.9082L26.44 24.0657Z" fill="#5388CA"/>
<path d="M24.4228 25.7015L24.8006 25.4824L26.8049 26.6393L26.4271 26.859L24.4228 25.7015Z" fill="white"/>
<path d="M24.4357 22.9089L24.8129 22.6892L24.8006 25.4824L24.4228 25.7015L24.4357 22.9089Z" fill="#EBEBEB"/>
<path d="M24.0535 22.2473L26.8172 23.843L26.8025 27.5169L24.0381 25.9205L24.0535 22.2473ZM26.4271 26.859L26.4394 24.0658L24.4357 22.9089L24.4228 25.7015L26.4271 26.859Z" fill="#4C525D"/>
<path d="M31.7317 27.1317L31.7194 29.9249L29.7145 28.7674L29.7268 25.9741L31.7317 27.1317Z" fill="#5388CA"/>
<path d="M29.7145 28.7673L30.0923 28.5476L32.0966 29.7045L31.7188 29.9242L29.7145 28.7673Z" fill="white"/>
<path d="M29.7274 25.974L30.1046 25.7549L30.0923 28.5475L29.7145 28.7672L29.7274 25.974Z" fill="#EBEBEB"/>
<path d="M29.3452 25.3132L32.1089 26.9089L32.0942 30.5822L29.3305 28.9865L29.3452 25.3132ZM31.7194 29.9249L31.7317 27.1311L29.7274 25.9742L29.7151 28.7674L31.7194 29.9249Z" fill="#4C525D"/>
<path d="M44.4511 34.9468L44.4388 37.7395L42.4338 36.5825L42.4461 33.7893L44.4511 34.9468Z" fill="#5388CA"/>
<path d="M42.4338 36.5827L42.8117 36.363L44.816 37.52L44.4381 37.7397L42.4338 36.5827Z" fill="white"/>
<path d="M42.4468 33.7894L42.824 33.5703L42.8117 36.3629L42.4338 36.5826L42.4468 33.7894Z" fill="#EBEBEB"/>
<path d="M42.0646 33.1284L44.8283 34.7235L44.8135 38.3973L42.0492 36.8017L42.0646 33.1284ZM44.4381 37.7395L44.4505 34.9469L42.4468 33.79L42.4345 36.5826L44.4381 37.7395Z" fill="#4C525D"/>
<path d="M49.7428 38.0123L49.7305 40.8055L47.7256 39.6486L47.7379 36.8547L49.7428 38.0123Z" fill="#5388CA"/>
<path d="M47.7256 39.6478L48.1034 39.4287L50.1077 40.5856L49.7305 40.8053L47.7256 39.6478Z" fill="white"/>
<path d="M47.7385 36.8552L48.1157 36.6355L48.1034 39.4287L47.7256 39.6478L47.7385 36.8552Z" fill="#EBEBEB"/>
<path d="M47.3563 36.1938L50.1206 37.7895L50.1052 41.4634L47.3416 39.8671L47.3563 36.1938ZM49.7305 40.8055L49.7428 38.0123L47.7385 36.8554L47.7262 39.648L49.7305 40.8055Z" fill="#4C525D"/>
<path d="M39.8603 9.33472L39.84 13.787L37.3532 17.2689L37.3735 10.7796L39.8603 9.33472Z" fill="#CCCCCC"/>
<path d="M37.3735 10.7796L37.3532 17.2688L32.5102 14.4725L32.5305 7.98389L37.3735 10.7796Z" fill="#DADADA"/>
<path d="M39.8603 9.33464L37.3735 10.7796L32.5305 7.98387L35.0172 6.53833L39.8603 9.33464Z" fill="#EBEBEB"/>
<path d="M39.8603 8.34644V8.7852L37.3723 10.2307V9.79136L39.8603 8.34644Z" fill="#555B66"/>
<path d="M37.3723 9.7913V10.2307L32.5305 7.43437V6.99561L37.3723 9.7913Z" fill="#5F656F"/>
<path d="M39.8603 8.34624L37.3723 9.79055L32.5305 6.99485L35.024 5.54932L39.8603 8.34624Z" fill="#75808E"/>
<path d="M36.4831 6.67432L39.8603 7.84293L37.3723 9.28847L36.4831 6.67432Z" fill="#4C525D"/>
<path d="M36.4831 6.67434L37.3723 9.28849L32.5305 6.49219L36.4831 6.67434Z" fill="#555B66"/>
<path d="M39.8603 7.84294L35.024 5.04663L36.4825 6.67432L39.8603 7.84294Z" fill="#555B66"/>
<path d="M32.5305 6.4923L35.024 5.04614L36.4825 6.67384L32.5305 6.4923Z" fill="#5F656F"/>
</svg>
