<svg width="65" height="50" viewBox="0 0 65 50" fill="none" xmlns="http://www.w3.org/2000/svg">
<g clip-path="url(#clip0_736_66)">
<path d="M21.1765 29.4266C21.0458 29.2919 20.923 29.1493 20.8002 29.0067C20.923 29.1493 21.0458 29.3117 21.1765 29.4266Z" fill="url(#paint0_linear_736_66)"/>
<path d="M20.9704 36.5488C20.8911 36.6319 20.8198 36.7191 20.7485 36.8062L20.7287 36.83C20.8198 36.7191 20.9149 36.6121 21.01 36.5052L20.9704 36.5488Z" fill="url(#paint1_linear_736_66)"/>
<path d="M21.1764 29.4266L20.3841 28.4521C20.4713 28.5868 20.5743 28.7175 20.6733 28.8483L20.8001 29.0107C20.9229 29.1493 21.0456 29.3117 21.1764 29.4266Z" fill="url(#paint2_linear_736_66)"/>
<path d="M21.1764 29.4266L20.3841 28.4521C20.4713 28.5868 20.5743 28.7175 20.6733 28.8483L20.8001 29.0107C20.9229 29.1493 21.0456 29.3117 21.1764 29.4266Z" fill="url(#paint3_linear_736_66)"/>
<path d="M20.7288 36.838L20.6456 36.9449C20.4397 37.2056 20.253 37.481 20.0871 37.7688L21.4497 36.0695C21.3441 36.1698 21.2411 36.2728 21.1407 36.3785L21.01 36.5131C20.915 36.6122 20.8199 36.7191 20.7288 36.838Z" fill="url(#paint4_linear_736_66)"/>
<path d="M20.7288 36.838L20.6456 36.9449C20.4397 37.2056 20.253 37.481 20.0871 37.7688L21.4497 36.0695C21.3441 36.1698 21.2411 36.2728 21.1407 36.3785L21.01 36.5131C20.915 36.6122 20.8199 36.7191 20.7288 36.838Z" fill="url(#paint5_linear_736_66)"/>
<path d="M64.0126 31.938C63.7523 28.4056 62.333 25.058 59.9752 22.4147C57.6174 19.7715 54.453 17.9806 50.9731 17.3201C47.4932 16.6595 43.8926 17.1662 40.7302 18.7615C37.5679 20.3569 35.0206 22.9515 33.4839 26.1428C33.4839 26.1904 33.4561 26.2339 33.4443 26.2815C33.2838 26.8622 33.0495 27.42 32.7471 27.9412C32.1863 28.9222 31.4058 29.7599 30.4668 30.3885C29.5278 31.0172 28.4558 31.4196 27.3352 31.5643C26.2145 31.709 25.0755 31.592 24.0076 31.2225C22.9397 30.853 21.972 30.241 21.1805 29.4346C21.0498 29.2959 20.923 29.1573 20.8042 29.0107L20.6774 28.8523C20.6299 28.7929 20.5823 28.7374 20.5388 28.678L20.1902 28.2819C19.3276 27.4852 18.262 26.9417 17.1105 26.7113C15.9591 26.4809 14.7665 26.5725 13.6637 26.976C12.561 27.3795 11.5908 28.0792 10.86 28.9983C10.1291 29.9173 9.6658 31.0201 9.52104 32.1854C9.37627 33.3507 9.55562 34.5334 10.0394 35.6033C10.5232 36.6733 11.2926 37.5891 12.2631 38.2502C13.2336 38.9112 14.3676 39.2918 15.5404 39.3502C16.7132 39.4085 17.8794 39.1423 18.9107 38.5809C19.5328 38.2292 20.0677 37.7418 20.4754 37.1549L20.5388 37.0717L20.6497 36.9331L20.7329 36.8222C20.7345 36.8157 20.7345 36.8088 20.7329 36.8023C20.8042 36.7152 20.8755 36.6281 20.9547 36.5449L20.9983 36.5013C21.0418 36.4538 21.0854 36.4102 21.125 36.3626L21.1686 36.3191L21.2795 36.2082C21.328 36.155 21.3796 36.1048 21.434 36.0577C22.2102 35.3443 23.1315 34.807 24.1347 34.4828C25.1379 34.1586 26.1993 34.055 27.2462 34.1791C28.2931 34.3033 29.3009 34.6522 30.2004 35.2021C31.1 35.7519 31.87 36.4897 32.4579 37.3648C32.5927 37.5642 32.717 37.7704 32.8303 37.9828C32.862 38.0343 32.8897 38.0897 32.9174 38.1452V38.1729C32.9806 38.2913 33.0374 38.4129 33.0878 38.5373C33.1053 38.5717 33.1199 38.6074 33.1313 38.6443C33.1296 38.6534 33.1296 38.6629 33.1313 38.672C33.1313 38.7077 33.163 38.7433 33.1749 38.779C33.1868 38.8146 33.2106 38.8701 33.2264 38.9176L33.2739 39.0404L33.3135 39.1632C33.3373 39.2305 33.3571 39.3018 33.3769 39.3692C33.3787 39.3797 33.3787 39.3904 33.3769 39.4009C33.388 39.432 33.3972 39.4638 33.4047 39.4959C33.4047 39.5514 33.4363 39.6029 33.4482 39.6583C33.4567 39.6829 33.4633 39.7081 33.468 39.7336C33.5884 40.257 33.7874 40.7592 34.0582 41.223C35.8943 44.3557 38.7367 46.7746 42.1228 48.0861C45.5088 49.3975 49.239 49.5241 52.7062 48.4454C56.1734 47.3667 59.1734 45.1461 61.2177 42.1451C63.262 39.1442 64.2304 35.5396 63.9651 31.9182L64.0126 31.938ZM47.9422 43.4254C45.8469 43.4262 43.7984 42.8056 42.056 41.642C40.3135 40.4784 38.9552 38.8242 38.1531 36.8885C37.3509 34.9529 37.1408 32.8228 37.5493 30.7678C37.9579 28.7127 38.9668 26.825 40.4484 25.3435C41.93 23.8619 43.8177 22.853 45.8727 22.4444C47.9278 22.0358 50.0578 22.2459 51.9935 23.0481C53.9291 23.8503 55.5833 25.2085 56.7469 26.951C57.9105 28.6935 58.5312 30.7419 58.5304 32.8372C58.5293 35.6451 57.4134 38.3376 55.428 40.323C53.4425 42.3085 50.75 43.4244 47.9422 43.4254Z" fill="url(#paint6_linear_736_66)"/>
<path d="M33.4561 39.5157C33.4487 39.4835 33.4394 39.4518 33.4283 39.4207C33.4099 39.3414 33.3861 39.2622 33.357 39.183C33.3321 39.0997 33.3031 39.0177 33.2699 38.9374C33.2342 38.8423 33.2025 38.7512 33.1629 38.6601L33.1154 38.5532C33.0599 38.4304 33.0045 38.3076 32.9451 38.1927C32.9451 38.1927 32.9451 38.1927 32.9451 38.161C32.9451 38.1293 32.8896 38.0541 32.8619 38.0026C32.7486 37.7902 32.6243 37.584 32.4895 37.3846L33.6779 40.411C33.6422 40.1693 33.5907 39.9356 33.5353 39.7019V39.6702L33.4561 39.5157Z" fill="url(#paint7_linear_736_66)"/>
<path d="M33.4561 39.5157C33.4487 39.4835 33.4394 39.4518 33.4283 39.4207C33.4099 39.3414 33.3861 39.2622 33.357 39.183C33.3321 39.0997 33.3031 39.0177 33.2699 38.9374C33.2342 38.8423 33.2025 38.7512 33.1629 38.6601L33.1154 38.5532C33.0599 38.4304 33.0045 38.3076 32.9451 38.1927C32.9451 38.1927 32.9451 38.1927 32.9451 38.161C32.9451 38.1293 32.8896 38.0541 32.8619 38.0026C32.7486 37.7902 32.6243 37.584 32.4895 37.3846L33.6779 40.411C33.6422 40.1693 33.5907 39.9356 33.5353 39.7019V39.6702L33.4561 39.5157Z" fill="url(#paint8_linear_736_66)"/>
<path d="M32.9411 38.1768C33.0005 38.2917 33.0559 38.4145 33.1114 38.5373C33.0559 38.4224 33.0005 38.2957 32.9411 38.1768Z" fill="url(#paint9_linear_736_66)"/>
<path d="M32.9411 38.1768C33.0005 38.2917 33.0559 38.4145 33.1114 38.5373C33.0559 38.4224 33.0005 38.2957 32.9411 38.1768Z" fill="url(#paint10_linear_736_66)"/>
<path d="M32.9411 38.1768C33.0005 38.2917 33.0559 38.4145 33.1114 38.5373C33.0559 38.4224 33.0005 38.2957 32.9411 38.1768Z" fill="url(#paint11_linear_736_66)"/>
<path d="M32.4579 37.3649C32.5927 37.5642 32.717 37.7705 32.8302 37.9828C32.7272 37.7729 32.6044 37.5669 32.4579 37.3649Z" fill="url(#paint12_linear_736_66)"/>
<path d="M32.4579 37.3649C32.5927 37.5642 32.717 37.7705 32.8302 37.9828C32.7272 37.7729 32.6044 37.5669 32.4579 37.3649Z" fill="url(#paint13_linear_736_66)"/>
<path d="M32.4579 37.3649C32.5927 37.5642 32.717 37.7705 32.8302 37.9828C32.7272 37.7729 32.6044 37.5669 32.4579 37.3649Z" fill="url(#paint14_linear_736_66)"/>
<path d="M33.163 38.6601C33.2026 38.7512 33.2343 38.8423 33.2699 38.9374C33.3031 39.0177 33.3322 39.0997 33.3571 39.183C33.3861 39.2622 33.4099 39.3415 33.4284 39.4207C33.4395 39.4518 33.4487 39.4835 33.4561 39.5157L33.4918 39.6504V39.6821C33.3916 39.2954 33.2591 38.9177 33.0956 38.5532L33.163 38.6601Z" fill="url(#paint15_linear_736_66)"/>
<path d="M33.163 38.6601C33.2026 38.7512 33.2343 38.8423 33.2699 38.9374C33.3031 39.0177 33.3322 39.0997 33.3571 39.183C33.3861 39.2622 33.4099 39.3415 33.4284 39.4207C33.4395 39.4518 33.4487 39.4835 33.4561 39.5157L33.4918 39.6504V39.6821C33.3916 39.2954 33.2591 38.9177 33.0956 38.5532L33.163 38.6601Z" fill="url(#paint16_linear_736_66)"/>
<path d="M33.163 38.6601C33.2026 38.7512 33.2343 38.8423 33.2699 38.9374C33.3031 39.0177 33.3322 39.0997 33.3571 39.183C33.3861 39.2622 33.4099 39.3415 33.4284 39.4207C33.4395 39.4518 33.4487 39.4835 33.4561 39.5157L33.4918 39.6504V39.6821C33.3916 39.2954 33.2591 38.9177 33.0956 38.5532L33.163 38.6601Z" fill="url(#paint17_linear_736_66)"/>
<path d="M32.854 37.9868C32.8817 38.0382 32.9134 38.0896 32.9371 38.1449L32.854 37.9868Z" fill="url(#paint18_linear_736_66)"/>
<path d="M32.854 37.9868C32.8817 38.0382 32.9134 38.0896 32.9371 38.1449L32.854 37.9868Z" fill="url(#paint19_linear_736_66)"/>
<path d="M32.854 37.9868C32.8817 38.0382 32.9134 38.0896 32.9371 38.1449L32.854 37.9868Z" fill="url(#paint20_linear_736_66)"/>
<path d="M32.747 27.9332C33.0488 27.4123 33.2819 26.8544 33.4402 26.2735C33.4402 26.226 33.4719 26.1824 33.4838 26.1349L32.747 27.9332Z" fill="url(#paint21_linear_736_66)"/>
<path d="M32.747 27.9332C33.0488 27.4123 33.2819 26.8544 33.4402 26.2735C33.4402 26.226 33.4719 26.1824 33.4838 26.1349L32.747 27.9332Z" fill="url(#paint22_linear_736_66)"/>
<path d="M33.4837 26.1428C33.4837 26.1902 33.4561 26.2337 33.4402 26.2812C33.4402 26.2337 33.4719 26.1902 33.4837 26.1428Z" fill="url(#paint23_linear_736_66)"/>
<path d="M33.4837 26.1428C33.4837 26.1902 33.4561 26.2337 33.4402 26.2812C33.4402 26.2337 33.4719 26.1902 33.4837 26.1428Z" fill="url(#paint24_linear_736_66)"/>
<path d="M33.4837 26.1428C33.4837 26.1902 33.4561 26.2337 33.4402 26.2812C33.4402 26.2337 33.4719 26.1902 33.4837 26.1428Z" fill="url(#paint25_linear_736_66)"/>
<path d="M54.2205 33.1066C54.2213 34.3422 53.8556 35.5504 53.1697 36.5782C52.4838 37.606 51.5084 38.4073 50.367 38.8807C49.2257 39.3541 47.9695 39.4783 46.7575 39.2378C45.5455 38.9972 44.432 38.4025 43.558 37.5291C42.684 36.6556 42.0887 35.5425 41.8473 34.3307C41.606 33.1188 41.7294 31.8626 42.2021 30.7209C42.6748 29.5792 43.4755 28.6034 44.5028 27.9168C45.5302 27.2302 46.7381 26.8638 47.9738 26.8638C49.6298 26.8638 51.2181 27.5213 52.3895 28.692C53.5609 29.8626 54.2195 31.4505 54.2205 33.1066Z" fill="url(#paint26_linear_736_66)"/>
<path d="M16.2804 43.8968C14.4219 43.8962 12.5963 43.407 10.9867 42.478C9.37711 41.5491 8.04014 40.2131 7.10995 38.6042C6.17976 36.9954 5.68907 35.1701 5.68713 33.3117C5.68518 31.4533 6.17206 29.627 7.09889 28.0162C8.02571 26.4053 9.35989 25.0666 10.9675 24.1343C12.5752 23.202 14.3998 22.7089 16.2582 22.7045C18.1167 22.7001 19.9435 23.1846 21.5556 24.1093C23.1676 25.034 24.5081 26.3664 25.4426 27.9728L30.0256 25.0534C28.2632 22.0021 25.548 19.6136 22.2969 18.2544C19.0458 16.8953 15.4385 16.6407 12.0288 17.5297C8.619 18.4187 5.59523 20.4022 3.42162 23.1757C1.24802 25.9492 0.0447232 29.3594 -0.00355442 32.8828C-0.0518321 36.4062 1.05757 39.8481 3.15437 42.6801C5.25117 45.5121 8.21947 47.5777 11.6036 48.5598C14.9877 49.5419 18.6006 49.3862 21.8877 48.1166C25.1748 46.8471 27.9544 44.5338 29.7999 41.5319L25.2683 38.9215C24.3158 40.4457 22.9909 41.7023 21.4184 42.5727C19.8459 43.4431 18.0777 43.8988 16.2804 43.8968Z" fill="url(#paint27_linear_736_66)"/>
<path d="M37.9004 17.3134V0.791306H33.0559V22.2331C34.3337 20.2924 35.9796 18.6209 37.9004 17.3134Z" fill="url(#paint28_linear_736_66)"/>
</g>
<defs>
<linearGradient id="paint0_linear_736_66" x1="6.47685" y1="29.2167" x2="58.1137" y2="29.2167" gradientUnits="userSpaceOnUse">
<stop stop-color="#319E60"/>
<stop offset="1" stop-color="#14A0C2"/>
</linearGradient>
<linearGradient id="paint1_linear_736_66" x1="6.4766" y1="36.6676" x2="58.1138" y2="36.6676" gradientUnits="userSpaceOnUse">
<stop stop-color="#319E60"/>
<stop offset="1" stop-color="#14A0C2"/>
</linearGradient>
<linearGradient id="paint2_linear_736_66" x1="6.47645" y1="28.9394" x2="58.1143" y2="28.9394" gradientUnits="userSpaceOnUse">
<stop stop-color="#319E60"/>
<stop offset="1" stop-color="#14A0C2"/>
</linearGradient>
<linearGradient id="paint3_linear_736_66" x1="6.47645" y1="28.9394" x2="58.1143" y2="28.9394" gradientUnits="userSpaceOnUse">
<stop stop-color="#319E60"/>
<stop offset="1" stop-color="#14A0C2"/>
</linearGradient>
<linearGradient id="paint4_linear_736_66" x1="6.47647" y1="36.9132" x2="58.1143" y2="36.9132" gradientUnits="userSpaceOnUse">
<stop stop-color="#319E60"/>
<stop offset="1" stop-color="#14A0C2"/>
</linearGradient>
<linearGradient id="paint5_linear_736_66" x1="6.47647" y1="36.9132" x2="58.1143" y2="36.9132" gradientUnits="userSpaceOnUse">
<stop stop-color="#319E60"/>
<stop offset="1" stop-color="#14A0C2"/>
</linearGradient>
<linearGradient id="paint6_linear_736_66" x1="6.4766" y1="33.1066" x2="58.1144" y2="33.1066" gradientUnits="userSpaceOnUse">
<stop stop-color="#319E60"/>
<stop offset="1" stop-color="#14A0C2"/>
</linearGradient>
<linearGradient id="paint7_linear_736_66" x1="6.47651" y1="38.878" x2="58.1144" y2="38.878" gradientUnits="userSpaceOnUse">
<stop stop-color="#319E60"/>
<stop offset="1" stop-color="#14A0C2"/>
</linearGradient>
<linearGradient id="paint8_linear_736_66" x1="6.47651" y1="38.878" x2="58.1144" y2="38.878" gradientUnits="userSpaceOnUse">
<stop stop-color="#319E60"/>
<stop offset="1" stop-color="#14A0C2"/>
</linearGradient>
<linearGradient id="paint9_linear_736_66" x1="6.47693" y1="38.3551" x2="58.1139" y2="38.3551" gradientUnits="userSpaceOnUse">
<stop stop-color="#319E60"/>
<stop offset="1" stop-color="#14A0C2"/>
</linearGradient>
<linearGradient id="paint10_linear_736_66" x1="6.47693" y1="38.3551" x2="58.1139" y2="38.3551" gradientUnits="userSpaceOnUse">
<stop stop-color="#319E60"/>
<stop offset="1" stop-color="#14A0C2"/>
</linearGradient>
<linearGradient id="paint11_linear_736_66" x1="6.47693" y1="38.3551" x2="58.1139" y2="38.3551" gradientUnits="userSpaceOnUse">
<stop stop-color="#319E60"/>
<stop offset="1" stop-color="#14A0C2"/>
</linearGradient>
<linearGradient id="paint12_linear_736_66" x1="6.47649" y1="37.6738" x2="58.1145" y2="37.6738" gradientUnits="userSpaceOnUse">
<stop stop-color="#319E60"/>
<stop offset="1" stop-color="#14A0C2"/>
</linearGradient>
<linearGradient id="paint13_linear_736_66" x1="6.47649" y1="37.6738" x2="58.1145" y2="37.6738" gradientUnits="userSpaceOnUse">
<stop stop-color="#319E60"/>
<stop offset="1" stop-color="#14A0C2"/>
</linearGradient>
<linearGradient id="paint14_linear_736_66" x1="6.47649" y1="37.6738" x2="58.1145" y2="37.6738" gradientUnits="userSpaceOnUse">
<stop stop-color="#319E60"/>
<stop offset="1" stop-color="#14A0C2"/>
</linearGradient>
<linearGradient id="paint15_linear_736_66" x1="6.47656" y1="39.1157" x2="58.1144" y2="39.1157" gradientUnits="userSpaceOnUse">
<stop stop-color="#319E60"/>
<stop offset="1" stop-color="#14A0C2"/>
</linearGradient>
<linearGradient id="paint16_linear_736_66" x1="6.47656" y1="39.1157" x2="58.1144" y2="39.1157" gradientUnits="userSpaceOnUse">
<stop stop-color="#319E60"/>
<stop offset="1" stop-color="#14A0C2"/>
</linearGradient>
<linearGradient id="paint17_linear_736_66" x1="6.47656" y1="39.1157" x2="58.1144" y2="39.1157" gradientUnits="userSpaceOnUse">
<stop stop-color="#319E60"/>
<stop offset="1" stop-color="#14A0C2"/>
</linearGradient>
<linearGradient id="paint18_linear_736_66" x1="6.52068" y1="38.0658" x2="58.0722" y2="38.0658" gradientUnits="userSpaceOnUse">
<stop stop-color="#319E60"/>
<stop offset="1" stop-color="#14A0C2"/>
</linearGradient>
<linearGradient id="paint19_linear_736_66" x1="6.52068" y1="38.0658" x2="58.0722" y2="38.0658" gradientUnits="userSpaceOnUse">
<stop stop-color="#319E60"/>
<stop offset="1" stop-color="#14A0C2"/>
</linearGradient>
<linearGradient id="paint20_linear_736_66" x1="6.52068" y1="38.0658" x2="58.0722" y2="38.0658" gradientUnits="userSpaceOnUse">
<stop stop-color="#319E60"/>
<stop offset="1" stop-color="#14A0C2"/>
</linearGradient>
<linearGradient id="paint21_linear_736_66" x1="6.47675" y1="27.0341" x2="58.1142" y2="27.0341" gradientUnits="userSpaceOnUse">
<stop stop-color="#319E60"/>
<stop offset="1" stop-color="#14A0C2"/>
</linearGradient>
<linearGradient id="paint22_linear_736_66" x1="6.47675" y1="27.0341" x2="58.1142" y2="27.0341" gradientUnits="userSpaceOnUse">
<stop stop-color="#319E60"/>
<stop offset="1" stop-color="#14A0C2"/>
</linearGradient>
<linearGradient id="paint23_linear_736_66" x1="6.52411" y1="26.2061" x2="58.0709" y2="26.2061" gradientUnits="userSpaceOnUse">
<stop stop-color="#319E60"/>
<stop offset="1" stop-color="#14A0C2"/>
</linearGradient>
<linearGradient id="paint24_linear_736_66" x1="6.52411" y1="26.2061" x2="58.0709" y2="26.2061" gradientUnits="userSpaceOnUse">
<stop stop-color="#319E60"/>
<stop offset="1" stop-color="#14A0C2"/>
</linearGradient>
<linearGradient id="paint25_linear_736_66" x1="6.52411" y1="26.2061" x2="58.0709" y2="26.2061" gradientUnits="userSpaceOnUse">
<stop stop-color="#319E60"/>
<stop offset="1" stop-color="#14A0C2"/>
</linearGradient>
<linearGradient id="paint26_linear_736_66" x1="6.47652" y1="33.1105" x2="58.1144" y2="33.1105" gradientUnits="userSpaceOnUse">
<stop stop-color="#319E60"/>
<stop offset="1" stop-color="#14A0C2"/>
</linearGradient>
<linearGradient id="paint27_linear_736_66" x1="6.47647" y1="33.1065" x2="58.1143" y2="33.1065" gradientUnits="userSpaceOnUse">
<stop stop-color="#319E60"/>
<stop offset="1" stop-color="#14A0C2"/>
</linearGradient>
<linearGradient id="paint28_linear_736_66" x1="6.47648" y1="11.5261" x2="58.1142" y2="11.5261" gradientUnits="userSpaceOnUse">
<stop stop-color="#319E60"/>
<stop offset="1" stop-color="#14A0C2"/>
</linearGradient>
<clipPath id="clip0_736_66">
<rect width="64.0561" height="48.3936" fill="white" transform="translate(0 0.803177)"/>
</clipPath>
</defs>
</svg>
