<svg width="229" height="30" viewBox="0 0 229 30" fill="none" xmlns="http://www.w3.org/2000/svg">
<path d="M220.658 28.975C218.685 28.975 216.926 28.5591 215.382 27.7272C213.86 26.8716 212.66 25.707 211.781 24.2335C210.925 22.7361 210.497 21.0249 210.497 19.0998C210.497 17.1509 210.901 15.4397 211.71 13.9661C212.541 12.4688 213.682 11.3042 215.132 10.4724C216.582 9.61674 218.245 9.18893 220.123 9.18893C221.977 9.18893 223.569 9.60486 224.9 10.4367C226.231 11.2448 227.241 12.3737 227.931 13.8235C228.644 15.2495 229 16.9013 229 18.7789C229 19.2305 228.846 19.6108 228.537 19.9198C228.228 20.205 227.835 20.3476 227.36 20.3476H212.993V17.4955H227.253L225.792 18.4937C225.768 17.3054 225.53 16.2477 225.079 15.3208C224.627 14.3701 223.985 13.6215 223.153 13.0748C222.322 12.5282 221.311 12.2549 220.123 12.2549C218.768 12.2549 217.604 12.552 216.629 13.1461C215.679 13.7403 214.954 14.5603 214.455 15.606C213.956 16.628 213.706 17.7926 213.706 19.0998C213.706 20.407 214.003 21.5716 214.597 22.5935C215.191 23.6155 216.011 24.4236 217.057 25.0178C218.103 25.612 219.303 25.909 220.658 25.909C221.395 25.909 222.143 25.7783 222.904 25.5169C223.688 25.2317 224.318 24.9108 224.793 24.5543C225.15 24.2929 225.53 24.1622 225.934 24.1622C226.362 24.1384 226.73 24.2572 227.039 24.5187C227.443 24.8752 227.657 25.2673 227.681 25.6951C227.705 26.1229 227.515 26.4913 227.111 26.8003C226.303 27.442 225.292 27.9649 224.08 28.3689C222.892 28.773 221.751 28.975 220.658 28.975Z" fill="url(#paint0_linear_736_110)"/>
<path d="M206.521 28.8324C205.475 28.8324 204.549 28.5472 203.74 27.9768C202.932 27.4064 202.303 26.634 201.851 25.6595C201.399 24.6613 201.174 23.5205 201.174 22.2371V2.77186C201.174 2.24899 201.34 1.82118 201.673 1.48844C202.005 1.1557 202.433 0.989334 202.956 0.989334C203.479 0.989334 203.907 1.1557 204.24 1.48844C204.572 1.82118 204.739 2.24899 204.739 2.77186V22.2371C204.739 23.1164 204.905 23.8413 205.238 24.4117C205.57 24.9822 205.998 25.2674 206.521 25.2674H207.412C207.888 25.2674 208.268 25.4337 208.553 25.7665C208.862 26.0992 209.017 26.527 209.017 27.0499C209.017 27.5728 208.791 28.0006 208.339 28.3333C207.888 28.666 207.305 28.8324 206.592 28.8324H206.521Z" fill="url(#paint1_linear_736_110)"/>
<path d="M186.624 28.975C184.77 28.975 183.106 28.5472 181.633 27.6916C180.159 26.8122 178.994 25.6239 178.139 24.1265C177.283 22.6292 176.844 20.9418 176.82 19.0642V2.80751C176.82 2.26087 176.986 1.82118 177.319 1.48844C177.675 1.1557 178.115 0.989334 178.638 0.989334C179.185 0.989334 179.624 1.1557 179.957 1.48844C180.29 1.82118 180.456 2.26087 180.456 2.80751V12.4332C181.288 11.4349 182.286 10.6506 183.451 10.0802C184.639 9.48605 185.934 9.18896 187.337 9.18896C189.072 9.18896 190.628 9.62865 192.007 10.508C193.385 11.3636 194.467 12.5401 195.251 14.0374C196.059 15.511 196.463 17.1866 196.463 19.0642C196.463 20.9418 196.024 22.6292 195.144 24.1265C194.289 25.6239 193.124 26.8122 191.65 27.6916C190.177 28.5472 188.501 28.975 186.624 28.975ZM186.624 25.7665C187.836 25.7665 188.917 25.4813 189.868 24.9109C190.819 24.3167 191.567 23.5086 192.114 22.4866C192.684 21.4646 192.969 20.3238 192.969 19.0642C192.969 17.7807 192.684 16.6399 192.114 15.6417C191.567 14.6435 190.819 13.8592 189.868 13.2888C188.917 12.6946 187.836 12.3975 186.624 12.3975C185.435 12.3975 184.354 12.6946 183.379 13.2888C182.429 13.8592 181.68 14.6435 181.133 15.6417C180.587 16.6399 180.314 17.7807 180.314 19.0642C180.314 20.3238 180.587 21.4646 181.133 22.4866C181.68 23.5086 182.429 24.3167 183.379 24.9109C184.354 25.4813 185.435 25.7665 186.624 25.7665Z" fill="url(#paint2_linear_736_110)"/>
<path d="M161.557 28.975C159.703 28.975 158.039 28.5472 156.566 27.6916C155.092 26.8122 153.928 25.6239 153.072 24.1265C152.217 22.6292 151.777 20.9418 151.753 19.0642V2.80751C151.753 2.26087 151.919 1.82118 152.252 1.48844C152.609 1.1557 153.048 0.989334 153.571 0.989334C154.118 0.989334 154.558 1.1557 154.89 1.48844C155.223 1.82118 155.389 2.26087 155.389 2.80751V12.4332C156.221 11.4349 157.219 10.6506 158.384 10.0802C159.572 9.48605 160.868 9.18896 162.27 9.18896C164.005 9.18896 165.562 9.62865 166.94 10.508C168.319 11.3636 169.4 12.5401 170.184 14.0374C170.992 15.511 171.397 17.1866 171.397 19.0642C171.397 20.9418 170.957 22.6292 170.077 24.1265C169.222 25.6239 168.057 26.8122 166.584 27.6916C165.11 28.5472 163.435 28.975 161.557 28.975ZM161.557 25.7665C162.769 25.7665 163.85 25.4813 164.801 24.9109C165.752 24.3167 166.5 23.5086 167.047 22.4866C167.618 21.4646 167.903 20.3238 167.903 19.0642C167.903 17.7807 167.618 16.6399 167.047 15.6417C166.5 14.6435 165.752 13.8592 164.801 13.2888C163.85 12.6946 162.769 12.3975 161.557 12.3975C160.369 12.3975 159.287 12.6946 158.313 13.2888C157.362 13.8592 156.613 14.6435 156.067 15.6417C155.52 16.6399 155.247 17.7807 155.247 19.0642C155.247 20.3238 155.52 21.4646 156.067 22.4866C156.613 23.5086 157.362 24.3167 158.313 24.9109C159.287 25.4813 160.369 25.7665 161.557 25.7665Z" fill="url(#paint3_linear_736_110)"/>
<path d="M135.652 29.0107C134.012 29.0107 132.538 28.6661 131.231 27.9768C129.948 27.2638 128.926 26.2299 128.165 24.8752C127.428 23.5205 127.06 21.8568 127.06 19.8841V11.1141C127.06 10.5912 127.226 10.1634 127.559 9.83069C127.916 9.47418 128.355 9.29593 128.878 9.29593C129.401 9.29593 129.829 9.47418 130.162 9.83069C130.518 10.1634 130.696 10.5912 130.696 11.1141V19.8841C130.696 21.2151 130.946 22.3203 131.445 23.1996C131.944 24.0553 132.621 24.697 133.477 25.1248C134.333 25.5288 135.295 25.7308 136.365 25.7308C137.387 25.7308 138.29 25.5288 139.074 25.1248C139.882 24.7207 140.524 24.1741 140.999 23.4849C141.475 22.7956 141.712 22.0232 141.712 21.1676H143.958C143.958 22.6411 143.59 23.9721 142.853 25.1604C142.14 26.3488 141.154 27.2876 139.894 27.9768C138.658 28.6661 137.244 29.0107 135.652 29.0107ZM143.531 28.8324C143.008 28.8324 142.568 28.6661 142.211 28.3333C141.879 27.9768 141.712 27.5371 141.712 27.0143V11.1141C141.712 10.5675 141.879 10.1278 142.211 9.79504C142.568 9.4623 143.008 9.29593 143.531 9.29593C144.077 9.29593 144.517 9.4623 144.85 9.79504C145.182 10.1278 145.349 10.5675 145.349 11.1141V27.0143C145.349 27.5371 145.182 27.9768 144.85 28.3333C144.517 28.6661 144.077 28.8324 143.531 28.8324Z" fill="url(#paint4_linear_736_110)"/>
<path d="M112.189 28.975C110.335 28.975 108.672 28.5472 107.198 27.6916C105.725 26.8122 104.56 25.6239 103.704 24.1265C102.849 22.6292 102.409 20.9418 102.385 19.0642V2.80751C102.385 2.26087 102.552 1.82118 102.884 1.48844C103.241 1.1557 103.681 0.989334 104.204 0.989334C104.75 0.989334 105.19 1.1557 105.523 1.48844C105.855 1.82118 106.022 2.26087 106.022 2.80751V12.4332C106.854 11.4349 107.852 10.6506 109.016 10.0802C110.205 9.48605 111.5 9.18896 112.902 9.18896C114.637 9.18896 116.194 9.62865 117.572 10.508C118.951 11.3636 120.032 12.5401 120.817 14.0374C121.625 15.511 122.029 17.1866 122.029 19.0642C122.029 20.9418 121.589 22.6292 120.71 24.1265C119.854 25.6239 118.69 26.8122 117.216 27.6916C115.742 28.5472 114.067 28.975 112.189 28.975ZM112.189 25.7665C113.401 25.7665 114.483 25.4813 115.433 24.9109C116.384 24.3167 117.133 23.5086 117.679 22.4866C118.25 21.4646 118.535 20.3238 118.535 19.0642C118.535 17.7807 118.25 16.6399 117.679 15.6417C117.133 14.6435 116.384 13.8592 115.433 13.2888C114.483 12.6946 113.401 12.3975 112.189 12.3975C111.001 12.3975 109.919 12.6946 108.945 13.2888C107.994 13.8592 107.246 14.6435 106.699 15.6417C106.152 16.6399 105.879 17.7807 105.879 19.0642C105.879 20.3238 106.152 21.4646 106.699 22.4866C107.246 23.5086 107.994 24.3167 108.945 24.9109C109.919 25.4813 111.001 25.7665 112.189 25.7665Z" fill="url(#paint5_linear_736_110)"/>
<path d="M94.555 28.868C94.0321 28.868 93.5924 28.7017 93.2359 28.3689C92.9032 28.0124 92.7368 27.5727 92.7368 27.0499V18.2798C92.7368 16.9251 92.4872 15.8199 91.9881 14.9643C91.489 14.1087 90.8117 13.4789 89.956 13.0748C89.1242 12.647 88.1616 12.4331 87.0683 12.4331C86.0701 12.4331 85.167 12.6351 84.3589 13.0392C83.5508 13.4432 82.9091 13.9899 82.4338 14.6791C81.9584 15.3446 81.7208 16.117 81.7208 16.9964H79.4748C79.4748 15.4991 79.8313 14.1681 80.5443 13.0035C81.2811 11.8152 82.2793 10.8764 83.5389 10.1871C84.7986 9.4979 86.2127 9.15327 87.7814 9.15327C89.4213 9.15327 90.883 9.50978 92.1664 10.2228C93.4736 10.912 94.4955 11.934 95.2323 13.2887C95.9929 14.6435 96.3731 16.3072 96.3731 18.2798V27.0499C96.3731 27.5727 96.1949 28.0124 95.8384 28.3689C95.5056 28.7017 95.0778 28.868 94.555 28.868ZM79.9026 28.868C79.3797 28.868 78.94 28.7017 78.5835 28.3689C78.2508 28.0124 78.0844 27.5727 78.0844 27.0499V11.1497C78.0844 10.6031 78.2508 10.1634 78.5835 9.83063C78.94 9.4979 79.3797 9.33153 79.9026 9.33153C80.4492 9.33153 80.8889 9.4979 81.2217 9.83063C81.5544 10.1634 81.7208 10.6031 81.7208 11.1497V27.0499C81.7208 27.5727 81.5544 28.0124 81.2217 28.3689C80.8889 28.7017 80.4492 28.868 79.9026 28.868Z" fill="url(#paint6_linear_736_110)"/>
<path d="M62.1557 28.975C60.4207 28.975 58.864 28.5472 57.4855 27.6916C56.107 26.8122 55.0137 25.6357 54.2056 24.1622C53.4213 22.6648 53.0291 20.9774 53.0291 19.0998C53.0291 17.2222 53.457 15.5347 54.3126 14.0374C55.1919 12.5401 56.3684 11.3636 57.842 10.508C59.3393 9.62863 61.0149 9.18893 62.8687 9.18893C64.7225 9.18893 66.3862 9.62863 67.8598 10.508C69.3333 11.3636 70.4979 12.5401 71.3535 14.0374C72.2329 15.5347 72.6726 17.2222 72.6726 19.0998H71.2822C71.2822 20.9774 70.8782 22.6648 70.0701 24.1622C69.2858 25.6357 68.2044 26.8122 66.8259 27.6916C65.4474 28.5472 63.8907 28.975 62.1557 28.975ZM62.8687 25.7664C64.0808 25.7664 65.1622 25.4812 66.1129 24.9108C67.0636 24.3167 67.8122 23.5205 68.3589 22.5222C68.9055 21.5003 69.1788 20.3594 69.1788 19.0998C69.1788 17.8164 68.9055 16.6755 68.3589 15.6773C67.8122 14.6554 67.0636 13.8592 66.1129 13.2887C65.1622 12.6946 64.0808 12.3975 62.8687 12.3975C61.6803 12.3975 60.5989 12.6946 59.6245 13.2887C58.6738 13.8592 57.9133 14.6554 57.3429 15.6773C56.7962 16.6755 56.5229 17.8164 56.5229 19.0998C56.5229 20.3594 56.7962 21.5003 57.3429 22.5222C57.9133 23.5205 58.6738 24.3167 59.6245 24.9108C60.5989 25.4812 61.6803 25.7664 62.8687 25.7664ZM70.8544 28.868C70.3315 28.868 69.8919 28.7017 69.5354 28.3689C69.2026 28.0124 69.0362 27.5727 69.0362 27.0499V21.5953L69.7136 17.8164L72.6726 19.0998V27.0499C72.6726 27.5727 72.4943 28.0124 72.1378 28.3689C71.8051 28.7017 71.3773 28.868 70.8544 28.868Z" fill="url(#paint7_linear_736_110)"/>
<path d="M41.7434 28.975C39.7708 28.975 38.012 28.5591 36.4671 27.7272C34.946 26.8716 33.7458 25.707 32.8664 24.2335C32.0108 22.7361 31.583 21.0249 31.583 19.0998C31.583 17.1509 31.987 15.4397 32.7951 13.9661C33.627 12.4688 34.7678 11.3042 36.2176 10.4724C37.6674 9.61674 39.3311 9.18893 41.2087 9.18893C43.0625 9.18893 44.6549 9.60486 45.9858 10.4367C47.3168 11.2448 48.3269 12.3737 49.0161 13.8235C49.7291 15.2495 50.0856 16.9013 50.0856 18.7789C50.0856 19.2305 49.9312 19.6108 49.6222 19.9198C49.3132 20.205 48.9211 20.3476 48.4457 20.3476H34.0785V17.4955H48.3388L46.8771 18.4937C46.8533 17.3054 46.6157 16.2477 46.1641 15.3208C45.7125 14.3701 45.0708 13.6215 44.239 13.0748C43.4071 12.5282 42.397 12.2549 41.2087 12.2549C39.8539 12.2549 38.6894 12.552 37.7149 13.1461C36.7642 13.7403 36.0393 14.5603 35.5402 15.606C35.0411 16.628 34.7916 17.7926 34.7916 19.0998C34.7916 20.407 35.0886 21.5716 35.6828 22.5935C36.277 23.6155 37.097 24.4236 38.1427 25.0178C39.1885 25.612 40.3887 25.909 41.7434 25.909C42.4802 25.909 43.2289 25.7783 43.9894 25.5169C44.7737 25.2317 45.4035 24.9108 45.8789 24.5543C46.2354 24.2929 46.6157 24.1622 47.0197 24.1622C47.4475 24.1384 47.8159 24.2572 48.1249 24.5187C48.5289 24.8752 48.7428 25.2673 48.7666 25.6951C48.7903 26.1229 48.6002 26.4913 48.1962 26.8003C47.3881 27.442 46.378 27.9649 45.1659 28.3689C43.9775 28.773 42.8367 28.975 41.7434 28.975Z" fill="url(#paint8_linear_736_110)"/>
<path d="M27.607 28.8324C26.5612 28.8324 25.6343 28.5472 24.8262 27.9768C24.0182 27.4064 23.3883 26.634 22.9368 25.6595C22.4852 24.6613 22.2594 23.5205 22.2594 22.2371V2.77186C22.2594 2.24899 22.4258 1.82118 22.7585 1.48844C23.0912 1.1557 23.5191 0.989334 24.0419 0.989334C24.5648 0.989334 24.9926 1.1557 25.3253 1.48844C25.6581 1.82118 25.8245 2.24899 25.8245 2.77186V22.2371C25.8245 23.1164 25.9908 23.8413 26.3236 24.4117C26.6563 24.9822 27.0841 25.2674 27.607 25.2674H28.4982C28.9736 25.2674 29.3539 25.4337 29.6391 25.7665C29.948 26.0992 30.1025 26.527 30.1025 27.0499C30.1025 27.5728 29.8767 28.0006 29.4252 28.3333C28.9736 28.666 28.3913 28.8324 27.6783 28.8324H27.607Z" fill="url(#paint9_linear_736_110)"/>
<path d="M10.4024 28.975C8.501 28.975 6.80165 28.5472 5.30433 27.6916C3.83077 26.8122 2.66619 25.6357 1.81057 24.1622C0.978728 22.6648 0.562805 20.9774 0.562805 19.0998C0.562805 17.1747 0.978728 15.4634 1.81057 13.9661C2.64242 12.4688 3.78324 11.3042 5.23303 10.4724C6.68282 9.61674 8.34651 9.18893 10.2241 9.18893C11.6264 9.18893 12.9098 9.46226 14.0744 10.0089C15.239 10.5318 16.2847 11.328 17.2116 12.3975C17.5444 12.7778 17.6632 13.1699 17.5681 13.574C17.4731 13.978 17.2116 14.3345 16.7838 14.6435C16.4511 14.8811 16.0827 14.9643 15.6786 14.893C15.2746 14.798 14.9062 14.5841 14.5735 14.2513C13.4089 13.0154 11.9591 12.3975 10.2241 12.3975C9.01199 12.3975 7.94247 12.6827 7.01556 13.2531C6.08864 13.7997 5.36375 14.5722 4.84087 15.5704C4.318 16.5686 4.05656 17.7451 4.05656 19.0998C4.05656 20.3832 4.318 21.524 4.84087 22.5222C5.38751 23.5205 6.13618 24.3167 7.08686 24.9108C8.03754 25.4812 9.14271 25.7664 10.4024 25.7664C11.2342 25.7664 11.9591 25.6714 12.577 25.4812C13.2188 25.2673 13.801 24.9465 14.3239 24.5187C14.7042 24.2097 15.0963 24.0433 15.5004 24.0196C15.9044 23.972 16.2609 24.079 16.5699 24.3404C16.9739 24.6732 17.1997 25.0534 17.2473 25.4812C17.2948 25.8853 17.1522 26.2537 16.8195 26.5864C15.1082 28.1788 12.9692 28.975 10.4024 28.975Z" fill="url(#paint10_linear_736_110)"/>
<defs>
<linearGradient id="paint0_linear_736_110" x1="-1.64735" y1="17.345" x2="230.477" y2="17.345" gradientUnits="userSpaceOnUse">
<stop stop-color="#319E60"/>
<stop offset="1" stop-color="#14A0C2"/>
</linearGradient>
<linearGradient id="paint1_linear_736_110" x1="-1.64747" y1="17.345" x2="230.477" y2="17.345" gradientUnits="userSpaceOnUse">
<stop stop-color="#319E60"/>
<stop offset="1" stop-color="#14A0C2"/>
</linearGradient>
<linearGradient id="paint2_linear_736_110" x1="-1.64745" y1="17.345" x2="230.477" y2="17.345" gradientUnits="userSpaceOnUse">
<stop stop-color="#319E60"/>
<stop offset="1" stop-color="#14A0C2"/>
</linearGradient>
<linearGradient id="paint3_linear_736_110" x1="-1.64737" y1="17.345" x2="230.477" y2="17.345" gradientUnits="userSpaceOnUse">
<stop stop-color="#319E60"/>
<stop offset="1" stop-color="#14A0C2"/>
</linearGradient>
<linearGradient id="paint4_linear_736_110" x1="-1.64741" y1="17.345" x2="230.477" y2="17.345" gradientUnits="userSpaceOnUse">
<stop stop-color="#319E60"/>
<stop offset="1" stop-color="#14A0C2"/>
</linearGradient>
<linearGradient id="paint5_linear_736_110" x1="-1.64742" y1="17.345" x2="230.477" y2="17.345" gradientUnits="userSpaceOnUse">
<stop stop-color="#319E60"/>
<stop offset="1" stop-color="#14A0C2"/>
</linearGradient>
<linearGradient id="paint6_linear_736_110" x1="-1.64748" y1="17.345" x2="230.477" y2="17.345" gradientUnits="userSpaceOnUse">
<stop stop-color="#319E60"/>
<stop offset="1" stop-color="#14A0C2"/>
</linearGradient>
<linearGradient id="paint7_linear_736_110" x1="-1.64737" y1="17.345" x2="230.477" y2="17.345" gradientUnits="userSpaceOnUse">
<stop stop-color="#319E60"/>
<stop offset="1" stop-color="#14A0C2"/>
</linearGradient>
<linearGradient id="paint8_linear_736_110" x1="-1.6475" y1="17.345" x2="230.477" y2="17.345" gradientUnits="userSpaceOnUse">
<stop stop-color="#319E60"/>
<stop offset="1" stop-color="#14A0C2"/>
</linearGradient>
<linearGradient id="paint9_linear_736_110" x1="-1.64736" y1="17.345" x2="230.477" y2="17.345" gradientUnits="userSpaceOnUse">
<stop stop-color="#319E60"/>
<stop offset="1" stop-color="#14A0C2"/>
</linearGradient>
<linearGradient id="paint10_linear_736_110" x1="-1.64754" y1="17.345" x2="230.477" y2="17.345" gradientUnits="userSpaceOnUse">
<stop stop-color="#319E60"/>
<stop offset="1" stop-color="#14A0C2"/>
</linearGradient>
</defs>
</svg>
