<svg width="54" height="54" viewBox="0 0 54 54" fill="none" xmlns="http://www.w3.org/2000/svg">
<g clip-path="url(#clip0_11_78)">
<path fill-rule="evenodd" clip-rule="evenodd" d="M34.5002 15.7752C32.2801 14.2918 29.67 13.5 27 13.5V0C32.3401 0 37.5602 1.58352 42.0004 4.55032C46.4405 7.51711 49.9011 11.7339 51.9448 16.6675C53.9883 21.6011 54.523 27.03 53.4812 32.2674C52.4394 37.5049 49.8679 42.3159 46.0918 46.0918C42.3159 49.8679 37.5049 52.4394 32.2674 53.4812C27.03 54.523 21.6011 53.9883 16.6675 51.9448C11.7339 49.9011 7.51711 46.4405 4.55032 42.0004C1.58352 37.5602 0 32.3401 0 27H13.5C13.5 29.67 14.2918 32.2801 15.7752 34.5002C17.2585 36.7203 19.367 38.4506 21.8338 39.4724C24.3005 40.4942 27.015 40.7615 29.6337 40.2405C32.2524 39.7197 34.6579 38.434 36.546 36.546C38.434 34.6579 39.7197 32.2524 40.2405 29.6337C40.7615 27.015 40.4942 24.3005 39.4724 21.8338C38.4506 19.367 36.7203 17.2585 34.5002 15.7752Z" fill="#5A27E5"/>
<path fill-rule="evenodd" clip-rule="evenodd" d="M13.5 5.84719e-06C13.5 1.77285 13.1508 3.52834 12.4724 5.16623C11.7939 6.80413 10.7995 8.29235 9.54594 9.54595C8.29235 10.7995 6.80413 11.7939 5.16623 12.4724C3.52833 13.1508 1.77284 13.5 5.90098e-07 13.5L0 27C3.54569 27 7.05666 26.3017 10.3325 24.9448C13.6083 23.5879 16.5847 21.5991 19.0918 19.0918C21.599 16.5848 23.5879 13.6083 24.9448 10.3325C26.3016 7.05666 27 3.54569 27 0L13.5 5.84719e-06Z" fill="#5A27E5"/>
</g>
<defs>
<clipPath id="clip0_11_78">
<rect width="54" height="54" fill="white"/>
</clipPath>
</defs>
</svg>
